<mxfile host="app.diagrams.net" modified="2024-07-11T04:08:02.024Z" agent="Mozilla/5.0 (Windows NT 10.0; Win64; x64) AppleWebKit/537.36 (KHTML, like Gecko) Chrome/126.0.0.0 Safari/537.36" etag="r4pUQ0AvdvYjTA6a8DcC" version="24.6.4" type="github">
  <diagram name="Page-1" id="0783ab3e-0a74-02c8-0abd-f7b4e66b4bec">
    <mxGraphModel dx="2100" dy="1206" grid="1" gridSize="10" guides="1" tooltips="1" connect="1" arrows="1" fold="1" page="1" pageScale="1" pageWidth="850" pageHeight="1100" background="none" math="0" shadow="0">
      <root>
        <mxCell id="0" />
        <mxCell id="1" parent="0" />
        <mxCell id="1c1d494c118603dd-1" value="Login" style="swimlane;html=1;childLayout=stackLayout;startSize=20;rounded=0;shadow=0;comic=0;labelBackgroundColor=none;strokeWidth=1;fontFamily=Verdana;fontSize=12;align=center;" parent="1" vertex="1">
          <mxGeometry x="40" y="20" width="500" height="620" as="geometry">
            <mxRectangle x="40" y="20" width="70" height="30" as="alternateBounds" />
          </mxGeometry>
        </mxCell>
        <mxCell id="1c1d494c118603dd-2" value="User (Super, Admin)" style="swimlane;html=1;startSize=20;" parent="1c1d494c118603dd-1" vertex="1">
          <mxGeometry y="20" width="250" height="600" as="geometry" />
        </mxCell>
        <mxCell id="60571a20871a0731-4" value="" style="ellipse;whiteSpace=wrap;html=1;rounded=0;shadow=0;comic=0;labelBackgroundColor=none;strokeWidth=1;fillColor=#000000;fontFamily=Verdana;fontSize=12;align=center;" parent="1c1d494c118603dd-2" vertex="1">
          <mxGeometry x="105" y="40" width="40" height="40" as="geometry" />
        </mxCell>
        <mxCell id="60571a20871a0731-8" value="Mengakses Halaman Login" style="rounded=1;whiteSpace=wrap;html=1;shadow=0;comic=0;labelBackgroundColor=none;strokeWidth=1;fontFamily=Verdana;fontSize=12;align=center;arcSize=50;" parent="1c1d494c118603dd-2" vertex="1">
          <mxGeometry x="67.5" y="110" width="115" height="40" as="geometry" />
        </mxCell>
        <mxCell id="1c1d494c118603dd-27" style="edgeStyle=orthogonalEdgeStyle;rounded=0;html=1;labelBackgroundColor=none;startArrow=none;startFill=0;startSize=5;endArrow=classicThin;endFill=1;endSize=5;jettySize=auto;orthogonalLoop=1;strokeWidth=1;fontFamily=Verdana;fontSize=12" parent="1c1d494c118603dd-2" source="60571a20871a0731-4" target="60571a20871a0731-8" edge="1">
          <mxGeometry relative="1" as="geometry" />
        </mxCell>
        <mxCell id="zufMGLrolCJn3FKlcZjP-13" style="edgeStyle=orthogonalEdgeStyle;rounded=0;orthogonalLoop=1;jettySize=auto;html=1;" parent="1c1d494c118603dd-2" source="zufMGLrolCJn3FKlcZjP-6" target="zufMGLrolCJn3FKlcZjP-11" edge="1">
          <mxGeometry relative="1" as="geometry" />
        </mxCell>
        <mxCell id="zufMGLrolCJn3FKlcZjP-6" value="Mengisi Form Login" style="rounded=1;whiteSpace=wrap;html=1;shadow=0;comic=0;labelBackgroundColor=none;strokeWidth=1;fontFamily=Verdana;fontSize=12;align=center;arcSize=50;" parent="1c1d494c118603dd-2" vertex="1">
          <mxGeometry x="67.5" y="180" width="115" height="40" as="geometry" />
        </mxCell>
        <mxCell id="zufMGLrolCJn3FKlcZjP-11" value="Klik Tombol Login" style="rounded=1;whiteSpace=wrap;html=1;shadow=0;comic=0;labelBackgroundColor=none;strokeWidth=1;fontFamily=Verdana;fontSize=12;align=center;arcSize=50;" parent="1c1d494c118603dd-2" vertex="1">
          <mxGeometry x="67.5" y="250" width="115" height="40" as="geometry" />
        </mxCell>
        <mxCell id="1c1d494c118603dd-3" value="Sistem" style="swimlane;html=1;startSize=20;" parent="1c1d494c118603dd-1" vertex="1">
          <mxGeometry x="250" y="20" width="250" height="600" as="geometry" />
        </mxCell>
        <mxCell id="zufMGLrolCJn3FKlcZjP-10" value="Menampilkan Form Login" style="rounded=1;whiteSpace=wrap;html=1;shadow=0;comic=0;labelBackgroundColor=none;strokeWidth=1;fontFamily=Verdana;fontSize=12;align=center;arcSize=50;" parent="1c1d494c118603dd-3" vertex="1">
          <mxGeometry x="67.5" y="110" width="115" height="40" as="geometry" />
        </mxCell>
        <mxCell id="zufMGLrolCJn3FKlcZjP-20" style="edgeStyle=orthogonalEdgeStyle;rounded=0;orthogonalLoop=1;jettySize=auto;html=1;" parent="1c1d494c118603dd-3" source="zufMGLrolCJn3FKlcZjP-14" target="zufMGLrolCJn3FKlcZjP-18" edge="1">
          <mxGeometry relative="1" as="geometry" />
        </mxCell>
        <mxCell id="zufMGLrolCJn3FKlcZjP-14" value="Validasi input" style="rounded=1;whiteSpace=wrap;html=1;shadow=0;comic=0;labelBackgroundColor=none;strokeWidth=1;fontFamily=Verdana;fontSize=12;align=center;arcSize=50;" parent="1c1d494c118603dd-3" vertex="1">
          <mxGeometry x="67.5" y="250" width="115" height="40" as="geometry" />
        </mxCell>
        <mxCell id="zufMGLrolCJn3FKlcZjP-22" style="edgeStyle=orthogonalEdgeStyle;rounded=0;orthogonalLoop=1;jettySize=auto;html=1;" parent="1c1d494c118603dd-3" source="zufMGLrolCJn3FKlcZjP-18" target="zufMGLrolCJn3FKlcZjP-21" edge="1">
          <mxGeometry relative="1" as="geometry">
            <Array as="points">
              <mxPoint x="167" y="345" />
            </Array>
          </mxGeometry>
        </mxCell>
        <mxCell id="zufMGLrolCJn3FKlcZjP-29" value="False" style="edgeLabel;html=1;align=center;verticalAlign=middle;resizable=0;points=[];" parent="zufMGLrolCJn3FKlcZjP-22" vertex="1" connectable="0">
          <mxGeometry x="-0.0605" y="2" relative="1" as="geometry">
            <mxPoint y="-17" as="offset" />
          </mxGeometry>
        </mxCell>
        <mxCell id="zufMGLrolCJn3FKlcZjP-27" style="edgeStyle=orthogonalEdgeStyle;rounded=0;orthogonalLoop=1;jettySize=auto;html=1;" parent="1c1d494c118603dd-3" source="zufMGLrolCJn3FKlcZjP-18" target="zufMGLrolCJn3FKlcZjP-24" edge="1">
          <mxGeometry relative="1" as="geometry">
            <Array as="points">
              <mxPoint x="30" y="345" />
              <mxPoint x="30" y="490" />
            </Array>
          </mxGeometry>
        </mxCell>
        <mxCell id="zufMGLrolCJn3FKlcZjP-31" value="True" style="edgeLabel;html=1;align=center;verticalAlign=middle;resizable=0;points=[];" parent="zufMGLrolCJn3FKlcZjP-27" vertex="1" connectable="0">
          <mxGeometry x="0.1515" y="-4" relative="1" as="geometry">
            <mxPoint as="offset" />
          </mxGeometry>
        </mxCell>
        <mxCell id="zufMGLrolCJn3FKlcZjP-18" value="Valid?" style="points=[[0.25,0.25,0],[0.5,0,0],[0.75,0.25,0],[1,0.5,0],[0.75,0.75,0],[0.5,1,0],[0.25,0.75,0],[0,0.5,0]];shape=mxgraph.bpmn.gateway2;html=1;verticalLabelPosition=bottom;labelBackgroundColor=#ffffff;verticalAlign=top;align=center;perimeter=rhombusPerimeter;outlineConnect=0;outline=none;symbol=none;rotation=0;" parent="1c1d494c118603dd-3" vertex="1">
          <mxGeometry x="100.00000000000011" y="320" width="50" height="50" as="geometry" />
        </mxCell>
        <mxCell id="zufMGLrolCJn3FKlcZjP-23" style="edgeStyle=orthogonalEdgeStyle;rounded=0;orthogonalLoop=1;jettySize=auto;html=1;" parent="1c1d494c118603dd-3" source="zufMGLrolCJn3FKlcZjP-21" target="zufMGLrolCJn3FKlcZjP-10" edge="1">
          <mxGeometry relative="1" as="geometry">
            <Array as="points">
              <mxPoint x="230" y="420" />
              <mxPoint x="230" y="130" />
            </Array>
          </mxGeometry>
        </mxCell>
        <mxCell id="zufMGLrolCJn3FKlcZjP-21" value="Menampilkan Pesan Kesalahan" style="rounded=1;whiteSpace=wrap;html=1;shadow=0;comic=0;labelBackgroundColor=none;strokeWidth=1;fontFamily=Verdana;fontSize=12;align=center;arcSize=50;" parent="1c1d494c118603dd-3" vertex="1">
          <mxGeometry x="100" y="403" width="115" height="40" as="geometry" />
        </mxCell>
        <mxCell id="zufMGLrolCJn3FKlcZjP-28" style="edgeStyle=orthogonalEdgeStyle;rounded=0;orthogonalLoop=1;jettySize=auto;html=1;entryX=0.5;entryY=0;entryDx=0;entryDy=0;" parent="1c1d494c118603dd-3" source="zufMGLrolCJn3FKlcZjP-24" target="zufMGLrolCJn3FKlcZjP-25" edge="1">
          <mxGeometry relative="1" as="geometry" />
        </mxCell>
        <mxCell id="zufMGLrolCJn3FKlcZjP-24" value="Tampilkan Halaman Dashboard" style="rounded=1;whiteSpace=wrap;html=1;shadow=0;comic=0;labelBackgroundColor=none;strokeWidth=1;fontFamily=Verdana;fontSize=12;align=center;arcSize=50;" parent="1c1d494c118603dd-3" vertex="1">
          <mxGeometry x="53.75" y="470" width="142.5" height="40" as="geometry" />
        </mxCell>
        <mxCell id="zufMGLrolCJn3FKlcZjP-25" value="" style="shape=mxgraph.bpmn.shape;html=1;verticalLabelPosition=bottom;labelBackgroundColor=#ffffff;verticalAlign=top;perimeter=ellipsePerimeter;outline=end;symbol=terminate;rounded=0;shadow=0;comic=0;strokeWidth=1;fontFamily=Verdana;fontSize=12;align=center;" parent="1c1d494c118603dd-3" vertex="1">
          <mxGeometry x="105" y="540" width="40" height="40" as="geometry" />
        </mxCell>
        <mxCell id="zufMGLrolCJn3FKlcZjP-4" style="edgeStyle=orthogonalEdgeStyle;rounded=0;orthogonalLoop=1;jettySize=auto;html=1;" parent="1c1d494c118603dd-1" source="60571a20871a0731-8" target="zufMGLrolCJn3FKlcZjP-10" edge="1">
          <mxGeometry relative="1" as="geometry">
            <mxPoint x="325" y="140" as="targetPoint" />
          </mxGeometry>
        </mxCell>
        <mxCell id="zufMGLrolCJn3FKlcZjP-9" style="edgeStyle=orthogonalEdgeStyle;rounded=0;orthogonalLoop=1;jettySize=auto;html=1;" parent="1c1d494c118603dd-1" source="zufMGLrolCJn3FKlcZjP-10" target="zufMGLrolCJn3FKlcZjP-6" edge="1">
          <mxGeometry relative="1" as="geometry">
            <mxPoint x="370.0588235294117" y="155" as="sourcePoint" />
            <Array as="points">
              <mxPoint x="370" y="220" />
            </Array>
          </mxGeometry>
        </mxCell>
        <mxCell id="zufMGLrolCJn3FKlcZjP-16" style="edgeStyle=orthogonalEdgeStyle;rounded=0;orthogonalLoop=1;jettySize=auto;html=1;" parent="1c1d494c118603dd-1" source="zufMGLrolCJn3FKlcZjP-11" target="zufMGLrolCJn3FKlcZjP-14" edge="1">
          <mxGeometry relative="1" as="geometry" />
        </mxCell>
        <mxCell id="1c1d494c118603dd-34" style="edgeStyle=none;rounded=0;html=1;labelBackgroundColor=none;startArrow=none;startFill=0;startSize=5;endArrow=classicThin;endFill=1;endSize=5;jettySize=auto;orthogonalLoop=1;strokeWidth=1;fontFamily=Verdana;fontSize=12" parent="1" source="1c1d494c118603dd-6" target="1c1d494c118603dd-10" edge="1">
          <mxGeometry relative="1" as="geometry" />
        </mxCell>
        <mxCell id="1c1d494c118603dd-6" value="Action" style="rounded=1;whiteSpace=wrap;html=1;shadow=0;comic=0;labelBackgroundColor=none;strokeWidth=1;fontFamily=Verdana;fontSize=12;align=center;arcSize=50;" parent="1" vertex="1">
          <mxGeometry x="1040" y="240" width="100" height="30" as="geometry" />
        </mxCell>
        <mxCell id="1c1d494c118603dd-7" value="Action" style="rounded=1;whiteSpace=wrap;html=1;shadow=0;comic=0;labelBackgroundColor=none;strokeWidth=1;fontFamily=Verdana;fontSize=12;align=center;arcSize=50;" parent="1" vertex="1">
          <mxGeometry x="1030" y="355" width="100" height="30" as="geometry" />
        </mxCell>
        <mxCell id="1c1d494c118603dd-35" style="edgeStyle=none;rounded=0;html=1;labelBackgroundColor=none;startArrow=none;startFill=0;startSize=5;endArrow=classicThin;endFill=1;endSize=5;jettySize=auto;orthogonalLoop=1;strokeWidth=1;fontFamily=Verdana;fontSize=12" parent="1" source="1c1d494c118603dd-10" target="1c1d494c118603dd-7" edge="1">
          <mxGeometry relative="1" as="geometry" />
        </mxCell>
        <mxCell id="1c1d494c118603dd-10" value="Object" style="rounded=0;whiteSpace=wrap;html=1;shadow=0;comic=0;labelBackgroundColor=none;strokeWidth=1;fontFamily=Verdana;fontSize=12;align=center;arcSize=50;" parent="1" vertex="1">
          <mxGeometry x="1090" y="300" width="70" height="30" as="geometry" />
        </mxCell>
        <mxCell id="1c1d494c118603dd-46" style="edgeStyle=none;rounded=0;html=1;labelBackgroundColor=none;startArrow=none;startFill=0;startSize=5;endArrow=oval;endFill=0;endSize=5;jettySize=auto;orthogonalLoop=1;strokeWidth=1;fontFamily=Verdana;fontSize=12;dashed=1;" parent="1" source="1c1d494c118603dd-21" target="1c1d494c118603dd-6" edge="1">
          <mxGeometry relative="1" as="geometry" />
        </mxCell>
        <mxCell id="1c1d494c118603dd-47" style="edgeStyle=none;rounded=0;html=1;dashed=1;labelBackgroundColor=none;startArrow=none;startFill=0;startSize=5;endArrow=oval;endFill=0;endSize=5;jettySize=auto;orthogonalLoop=1;strokeWidth=1;fontFamily=Verdana;fontSize=12" parent="1" source="1c1d494c118603dd-21" target="1c1d494c118603dd-10" edge="1">
          <mxGeometry relative="1" as="geometry" />
        </mxCell>
        <mxCell id="60571a20871a0731-3" value="" style="whiteSpace=wrap;html=1;rounded=0;shadow=0;comic=0;labelBackgroundColor=none;strokeWidth=1;fillColor=#000000;fontFamily=Verdana;fontSize=12;align=center;rotation=0;" parent="1" vertex="1">
          <mxGeometry x="1230" y="180" width="147" height="10" as="geometry" />
        </mxCell>
        <mxCell id="1c1d494c118603dd-40" style="edgeStyle=none;rounded=0;html=1;labelBackgroundColor=none;startArrow=none;startFill=0;startSize=5;endArrow=classicThin;endFill=1;endSize=5;jettySize=auto;orthogonalLoop=1;strokeWidth=1;fontFamily=Verdana;fontSize=12" parent="1" source="1c1d494c118603dd-11" target="1c1d494c118603dd-15" edge="1">
          <mxGeometry relative="1" as="geometry" />
        </mxCell>
        <mxCell id="1c1d494c118603dd-11" value="Action" style="rounded=1;whiteSpace=wrap;html=1;shadow=0;comic=0;labelBackgroundColor=none;strokeWidth=1;fontFamily=Verdana;fontSize=12;align=center;arcSize=50;" parent="1" vertex="1">
          <mxGeometry x="1264" y="470" width="100" height="30" as="geometry" />
        </mxCell>
        <mxCell id="1c1d494c118603dd-39" style="edgeStyle=none;rounded=0;html=1;labelBackgroundColor=none;startArrow=none;startFill=0;startSize=5;endArrow=classicThin;endFill=1;endSize=5;jettySize=auto;orthogonalLoop=1;strokeWidth=1;fontFamily=Verdana;fontSize=12" parent="1" source="1c1d494c118603dd-12" target="1c1d494c118603dd-11" edge="1">
          <mxGeometry relative="1" as="geometry" />
        </mxCell>
        <mxCell id="1c1d494c118603dd-12" value="" style="whiteSpace=wrap;html=1;rounded=0;shadow=0;comic=0;labelBackgroundColor=none;strokeWidth=1;fillColor=#000000;fontFamily=Verdana;fontSize=12;align=center;rotation=0;" parent="1" vertex="1">
          <mxGeometry x="1240" y="430" width="147" height="10" as="geometry" />
        </mxCell>
        <mxCell id="1c1d494c118603dd-32" style="edgeStyle=orthogonalEdgeStyle;rounded=0;html=1;entryX=0.25;entryY=0;labelBackgroundColor=none;startArrow=none;startFill=0;startSize=5;endArrow=classicThin;endFill=1;endSize=5;jettySize=auto;orthogonalLoop=1;strokeWidth=1;fontFamily=Verdana;fontSize=12" parent="1" source="1c1d494c118603dd-14" target="1c1d494c118603dd-12" edge="1">
          <mxGeometry relative="1" as="geometry" />
        </mxCell>
        <mxCell id="1c1d494c118603dd-14" value="Object" style="rounded=0;whiteSpace=wrap;html=1;shadow=0;comic=0;labelBackgroundColor=none;strokeWidth=1;fontFamily=Verdana;fontSize=12;align=center;arcSize=50;" parent="1" vertex="1">
          <mxGeometry x="1160" y="385" width="70" height="30" as="geometry" />
        </mxCell>
        <mxCell id="1c1d494c118603dd-41" style="edgeStyle=none;rounded=0;html=1;labelBackgroundColor=none;startArrow=none;startFill=0;startSize=5;endArrow=classicThin;endFill=1;endSize=5;jettySize=auto;orthogonalLoop=1;strokeWidth=1;fontFamily=Verdana;fontSize=12" parent="1" source="1c1d494c118603dd-15" target="1c1d494c118603dd-16" edge="1">
          <mxGeometry relative="1" as="geometry" />
        </mxCell>
        <mxCell id="1c1d494c118603dd-15" value="Object" style="rounded=0;whiteSpace=wrap;html=1;shadow=0;comic=0;labelBackgroundColor=none;strokeWidth=1;fontFamily=Verdana;fontSize=12;align=center;arcSize=50;" parent="1" vertex="1">
          <mxGeometry x="1325" y="530" width="70" height="30" as="geometry" />
        </mxCell>
        <mxCell id="1c1d494c118603dd-16" value="Action" style="rounded=1;whiteSpace=wrap;html=1;shadow=0;comic=0;labelBackgroundColor=none;strokeWidth=1;fontFamily=Verdana;fontSize=12;align=center;arcSize=50;" parent="1" vertex="1">
          <mxGeometry x="1285" y="600" width="100" height="30" as="geometry" />
        </mxCell>
        <mxCell id="1c1d494c118603dd-52" style="edgeStyle=none;rounded=0;html=1;dashed=1;labelBackgroundColor=none;startArrow=none;startFill=0;startSize=5;endArrow=oval;endFill=0;endSize=5;jettySize=auto;orthogonalLoop=1;strokeWidth=1;fontFamily=Verdana;fontSize=12" parent="1" source="1c1d494c118603dd-23" target="1c1d494c118603dd-11" edge="1">
          <mxGeometry relative="1" as="geometry" />
        </mxCell>
        <mxCell id="1c1d494c118603dd-53" style="edgeStyle=none;rounded=0;html=1;dashed=1;labelBackgroundColor=none;startArrow=none;startFill=0;startSize=5;endArrow=oval;endFill=0;endSize=5;jettySize=auto;orthogonalLoop=1;strokeWidth=1;fontFamily=Verdana;fontSize=12" parent="1" source="1c1d494c118603dd-23" target="1c1d494c118603dd-15" edge="1">
          <mxGeometry relative="1" as="geometry" />
        </mxCell>
        <mxCell id="1c1d494c118603dd-23" value="Note" style="shape=note;whiteSpace=wrap;html=1;rounded=0;shadow=0;comic=0;labelBackgroundColor=none;strokeWidth=1;fontFamily=Verdana;fontSize=12;align=center;size=20;" parent="1" vertex="1">
          <mxGeometry x="1210" y="530" width="90" height="55" as="geometry" />
        </mxCell>
        <mxCell id="1c1d494c118603dd-54" style="edgeStyle=none;rounded=0;html=1;dashed=1;labelBackgroundColor=none;startArrow=none;startFill=0;startSize=5;endArrow=oval;endFill=0;endSize=5;jettySize=auto;orthogonalLoop=1;strokeWidth=1;fontFamily=Verdana;fontSize=12" parent="1" source="1c1d494c118603dd-24" target="1c1d494c118603dd-16" edge="1">
          <mxGeometry relative="1" as="geometry" />
        </mxCell>
        <mxCell id="1c1d494c118603dd-24" value="Note" style="shape=note;whiteSpace=wrap;html=1;rounded=0;shadow=0;comic=0;labelBackgroundColor=none;strokeWidth=1;fontFamily=Verdana;fontSize=12;align=center;size=20;" parent="1" vertex="1">
          <mxGeometry x="1240" y="668" width="105" height="55" as="geometry" />
        </mxCell>
        <mxCell id="1c1d494c118603dd-33" style="rounded=0;html=1;labelBackgroundColor=none;startArrow=none;startFill=0;startSize=5;endArrow=classicThin;endFill=1;endSize=5;jettySize=auto;orthogonalLoop=1;strokeWidth=1;fontFamily=Verdana;fontSize=12" parent="1" source="1c1d494c118603dd-5" target="1c1d494c118603dd-9" edge="1">
          <mxGeometry relative="1" as="geometry" />
        </mxCell>
        <mxCell id="1c1d494c118603dd-5" value="Action" style="rounded=1;whiteSpace=wrap;html=1;shadow=0;comic=0;labelBackgroundColor=none;strokeWidth=1;fontFamily=Verdana;fontSize=12;align=center;arcSize=50;" parent="1" vertex="1">
          <mxGeometry x="1495" y="228" width="100" height="30" as="geometry" />
        </mxCell>
        <mxCell id="1c1d494c118603dd-38" style="edgeStyle=none;rounded=0;html=1;labelBackgroundColor=none;startArrow=none;startFill=0;startSize=5;endArrow=classicThin;endFill=1;endSize=5;jettySize=auto;orthogonalLoop=1;strokeWidth=1;fontFamily=Verdana;fontSize=12" parent="1" source="1c1d494c118603dd-8" target="1c1d494c118603dd-13" edge="1">
          <mxGeometry relative="1" as="geometry" />
        </mxCell>
        <mxCell id="1c1d494c118603dd-8" value="Action" style="rounded=1;whiteSpace=wrap;html=1;shadow=0;comic=0;labelBackgroundColor=none;strokeWidth=1;fontFamily=Verdana;fontSize=12;align=center;arcSize=50;" parent="1" vertex="1">
          <mxGeometry x="1535" y="350" width="100" height="30" as="geometry" />
        </mxCell>
        <mxCell id="1c1d494c118603dd-37" style="edgeStyle=none;rounded=0;html=1;labelBackgroundColor=none;startArrow=none;startFill=0;startSize=5;endArrow=classicThin;endFill=1;endSize=5;jettySize=auto;orthogonalLoop=1;strokeWidth=1;fontFamily=Verdana;fontSize=12" parent="1" source="1c1d494c118603dd-9" target="1c1d494c118603dd-8" edge="1">
          <mxGeometry relative="1" as="geometry" />
        </mxCell>
        <mxCell id="1c1d494c118603dd-9" value="Object" style="rounded=0;whiteSpace=wrap;html=1;shadow=0;comic=0;labelBackgroundColor=none;strokeWidth=1;fontFamily=Verdana;fontSize=12;align=center;arcSize=50;" parent="1" vertex="1">
          <mxGeometry x="1465" y="288" width="70" height="30" as="geometry" />
        </mxCell>
        <mxCell id="1c1d494c118603dd-13" value="Object" style="rounded=0;whiteSpace=wrap;html=1;shadow=0;comic=0;labelBackgroundColor=none;strokeWidth=1;fontFamily=Verdana;fontSize=12;align=center;arcSize=50;" parent="1" vertex="1">
          <mxGeometry x="1415" y="380" width="70" height="30" as="geometry" />
        </mxCell>
        <mxCell id="1c1d494c118603dd-43" style="edgeStyle=none;rounded=0;html=1;labelBackgroundColor=none;startArrow=none;startFill=0;startSize=5;endArrow=classicThin;endFill=1;endSize=5;jettySize=auto;orthogonalLoop=1;strokeWidth=1;fontFamily=Verdana;fontSize=12" parent="1" source="1c1d494c118603dd-17" target="1c1d494c118603dd-18" edge="1">
          <mxGeometry relative="1" as="geometry" />
        </mxCell>
        <mxCell id="1c1d494c118603dd-17" value="Object" style="rounded=0;whiteSpace=wrap;html=1;shadow=0;comic=0;labelBackgroundColor=none;strokeWidth=1;fontFamily=Verdana;fontSize=12;align=center;arcSize=50;" parent="1" vertex="1">
          <mxGeometry x="1415" y="630" width="70" height="30" as="geometry" />
        </mxCell>
        <mxCell id="1c1d494c118603dd-44" style="edgeStyle=none;rounded=0;html=1;labelBackgroundColor=none;startArrow=none;startFill=0;startSize=5;endArrow=classicThin;endFill=1;endSize=5;jettySize=auto;orthogonalLoop=1;strokeWidth=1;fontFamily=Verdana;fontSize=12" parent="1" source="1c1d494c118603dd-18" target="1c1d494c118603dd-19" edge="1">
          <mxGeometry relative="1" as="geometry" />
        </mxCell>
        <mxCell id="1c1d494c118603dd-18" value="Action" style="rounded=1;whiteSpace=wrap;html=1;shadow=0;comic=0;labelBackgroundColor=none;strokeWidth=1;fontFamily=Verdana;fontSize=12;align=center;arcSize=50;" parent="1" vertex="1">
          <mxGeometry x="1520" y="690" width="100" height="30" as="geometry" />
        </mxCell>
        <mxCell id="1c1d494c118603dd-45" style="edgeStyle=none;rounded=0;html=1;labelBackgroundColor=none;startArrow=none;startFill=0;startSize=5;endArrow=classicThin;endFill=1;endSize=5;jettySize=auto;orthogonalLoop=1;strokeWidth=1;fontFamily=Verdana;fontSize=12" parent="1" source="1c1d494c118603dd-19" target="60571a20871a0731-5" edge="1">
          <mxGeometry relative="1" as="geometry" />
        </mxCell>
        <mxCell id="1c1d494c118603dd-19" value="Action" style="rounded=1;whiteSpace=wrap;html=1;shadow=0;comic=0;labelBackgroundColor=none;strokeWidth=1;fontFamily=Verdana;fontSize=12;align=center;arcSize=50;" parent="1" vertex="1">
          <mxGeometry x="1520" y="830" width="100" height="30" as="geometry" />
        </mxCell>
        <mxCell id="60571a20871a0731-5" value="" style="shape=mxgraph.bpmn.shape;html=1;verticalLabelPosition=bottom;labelBackgroundColor=#ffffff;verticalAlign=top;perimeter=ellipsePerimeter;outline=end;symbol=terminate;rounded=0;shadow=0;comic=0;strokeWidth=1;fontFamily=Verdana;fontSize=12;align=center;" parent="1" vertex="1">
          <mxGeometry x="1550" y="900" width="40" height="40" as="geometry" />
        </mxCell>
        <mxCell id="1c1d494c118603dd-48" style="edgeStyle=none;rounded=0;html=1;dashed=1;labelBackgroundColor=none;startArrow=none;startFill=0;startSize=5;endArrow=oval;endFill=0;endSize=5;jettySize=auto;orthogonalLoop=1;strokeWidth=1;fontFamily=Verdana;fontSize=12" parent="1" source="1c1d494c118603dd-20" target="1c1d494c118603dd-5" edge="1">
          <mxGeometry relative="1" as="geometry" />
        </mxCell>
        <mxCell id="1c1d494c118603dd-49" style="edgeStyle=none;rounded=0;html=1;dashed=1;labelBackgroundColor=none;startArrow=none;startFill=0;startSize=5;endArrow=oval;endFill=0;endSize=5;jettySize=auto;orthogonalLoop=1;strokeWidth=1;fontFamily=Verdana;fontSize=12" parent="1" source="1c1d494c118603dd-20" target="1c1d494c118603dd-9" edge="1">
          <mxGeometry relative="1" as="geometry" />
        </mxCell>
        <mxCell id="1c1d494c118603dd-20" value="Note" style="shape=note;whiteSpace=wrap;html=1;rounded=0;shadow=0;comic=0;labelBackgroundColor=none;strokeWidth=1;fontFamily=Verdana;fontSize=12;align=center;size=20;" parent="1" vertex="1">
          <mxGeometry x="1610" y="276" width="75" height="44" as="geometry" />
        </mxCell>
        <mxCell id="1c1d494c118603dd-50" style="edgeStyle=none;rounded=0;html=1;dashed=1;labelBackgroundColor=none;startArrow=none;startFill=0;startSize=5;endArrow=oval;endFill=0;endSize=5;jettySize=auto;orthogonalLoop=1;strokeWidth=1;fontFamily=Verdana;fontSize=12" parent="1" source="1c1d494c118603dd-22" target="1c1d494c118603dd-8" edge="1">
          <mxGeometry relative="1" as="geometry" />
        </mxCell>
        <mxCell id="1c1d494c118603dd-51" style="edgeStyle=none;rounded=0;html=1;dashed=1;labelBackgroundColor=none;startArrow=none;startFill=0;startSize=5;endArrow=oval;endFill=0;endSize=5;jettySize=auto;orthogonalLoop=1;strokeWidth=1;fontFamily=Verdana;fontSize=12" parent="1" source="1c1d494c118603dd-22" target="1c1d494c118603dd-13" edge="1">
          <mxGeometry relative="1" as="geometry" />
        </mxCell>
        <mxCell id="1c1d494c118603dd-22" value="Note" style="shape=note;whiteSpace=wrap;html=1;rounded=0;shadow=0;comic=0;labelBackgroundColor=none;strokeWidth=1;fontFamily=Verdana;fontSize=12;align=center;size=20;" parent="1" vertex="1">
          <mxGeometry x="1560" y="435" width="105" height="55" as="geometry" />
        </mxCell>
        <mxCell id="1c1d494c118603dd-56" style="edgeStyle=none;rounded=0;html=1;dashed=1;labelBackgroundColor=none;startArrow=none;startFill=0;startSize=5;endArrow=oval;endFill=0;endSize=5;jettySize=auto;orthogonalLoop=1;strokeWidth=1;fontFamily=Verdana;fontSize=12" parent="1" source="1c1d494c118603dd-25" target="1c1d494c118603dd-18" edge="1">
          <mxGeometry relative="1" as="geometry" />
        </mxCell>
        <mxCell id="1c1d494c118603dd-57" style="edgeStyle=none;rounded=0;html=1;dashed=1;labelBackgroundColor=none;startArrow=none;startFill=0;startSize=5;endArrow=oval;endFill=0;endSize=5;jettySize=auto;orthogonalLoop=1;strokeWidth=1;fontFamily=Verdana;fontSize=12" parent="1" source="1c1d494c118603dd-25" target="1c1d494c118603dd-17" edge="1">
          <mxGeometry relative="1" as="geometry" />
        </mxCell>
        <mxCell id="1c1d494c118603dd-25" value="Note" style="shape=note;whiteSpace=wrap;html=1;rounded=0;shadow=0;comic=0;labelBackgroundColor=none;strokeWidth=1;fontFamily=Verdana;fontSize=12;align=center;size=20;" parent="1" vertex="1">
          <mxGeometry x="1570" y="610" width="115" height="50" as="geometry" />
        </mxCell>
        <mxCell id="1c1d494c118603dd-58" style="edgeStyle=none;rounded=0;html=1;dashed=1;labelBackgroundColor=none;startArrow=none;startFill=0;startSize=5;endArrow=oval;endFill=0;endSize=5;jettySize=auto;orthogonalLoop=1;strokeWidth=1;fontFamily=Verdana;fontSize=12" parent="1" source="1c1d494c118603dd-26" target="1c1d494c118603dd-19" edge="1">
          <mxGeometry relative="1" as="geometry" />
        </mxCell>
        <mxCell id="1c1d494c118603dd-29" style="edgeStyle=orthogonalEdgeStyle;rounded=0;html=1;exitX=0.75;exitY=1;labelBackgroundColor=none;startArrow=none;startFill=0;startSize=5;endArrow=classicThin;endFill=1;endSize=5;jettySize=auto;orthogonalLoop=1;strokeWidth=1;fontFamily=Verdana;fontSize=12" parent="1" source="60571a20871a0731-3" target="1c1d494c118603dd-5" edge="1">
          <mxGeometry relative="1" as="geometry">
            <Array as="points">
              <mxPoint x="1340" y="210" />
              <mxPoint x="1545" y="210" />
            </Array>
          </mxGeometry>
        </mxCell>
        <mxCell id="1c1d494c118603dd-30" style="edgeStyle=orthogonalEdgeStyle;rounded=0;html=1;exitX=0.25;exitY=1;entryX=0.5;entryY=0;labelBackgroundColor=none;startArrow=none;startFill=0;startSize=5;endArrow=classicThin;endFill=1;endSize=5;jettySize=auto;orthogonalLoop=1;strokeWidth=1;fontFamily=Verdana;fontSize=12" parent="1" source="60571a20871a0731-3" target="1c1d494c118603dd-6" edge="1">
          <mxGeometry relative="1" as="geometry">
            <Array as="points">
              <mxPoint x="1267" y="210" />
              <mxPoint x="1090" y="210" />
            </Array>
          </mxGeometry>
        </mxCell>
        <mxCell id="1c1d494c118603dd-31" style="edgeStyle=orthogonalEdgeStyle;rounded=0;html=1;entryX=0.75;entryY=0;labelBackgroundColor=none;startArrow=none;startFill=0;startSize=5;endArrow=classicThin;endFill=1;endSize=5;jettySize=auto;orthogonalLoop=1;strokeWidth=1;fontFamily=Verdana;fontSize=12" parent="1" source="1c1d494c118603dd-13" target="1c1d494c118603dd-12" edge="1">
          <mxGeometry relative="1" as="geometry" />
        </mxCell>
        <mxCell id="1c1d494c118603dd-36" style="edgeStyle=none;rounded=0;html=1;labelBackgroundColor=none;startArrow=none;startFill=0;startSize=5;endArrow=classicThin;endFill=1;endSize=5;jettySize=auto;orthogonalLoop=1;strokeWidth=1;fontFamily=Verdana;fontSize=12" parent="1" source="1c1d494c118603dd-7" target="1c1d494c118603dd-14" edge="1">
          <mxGeometry relative="1" as="geometry" />
        </mxCell>
        <mxCell id="1c1d494c118603dd-42" style="edgeStyle=none;rounded=0;html=1;labelBackgroundColor=none;startArrow=none;startFill=0;startSize=5;endArrow=classicThin;endFill=1;endSize=5;jettySize=auto;orthogonalLoop=1;strokeWidth=1;fontFamily=Verdana;fontSize=12" parent="1" source="1c1d494c118603dd-16" target="1c1d494c118603dd-17" edge="1">
          <mxGeometry relative="1" as="geometry" />
        </mxCell>
        <mxCell id="1c1d494c118603dd-55" style="edgeStyle=none;rounded=0;html=1;dashed=1;labelBackgroundColor=none;startArrow=none;startFill=0;startSize=5;endArrow=oval;endFill=0;endSize=5;jettySize=auto;orthogonalLoop=1;strokeWidth=1;fontFamily=Verdana;fontSize=12" parent="1" source="1c1d494c118603dd-24" target="1c1d494c118603dd-17" edge="1">
          <mxGeometry relative="1" as="geometry" />
        </mxCell>
        <mxCell id="1c1d494c118603dd-26" value="Note" style="shape=note;whiteSpace=wrap;html=1;rounded=0;shadow=0;comic=0;labelBackgroundColor=none;strokeWidth=1;fontFamily=Verdana;fontSize=12;align=center;size=20;" parent="1" vertex="1">
          <mxGeometry x="1600" y="760" width="95" height="45" as="geometry" />
        </mxCell>
        <mxCell id="1c1d494c118603dd-21" value="Note" style="shape=note;whiteSpace=wrap;html=1;rounded=0;shadow=0;comic=0;labelBackgroundColor=none;strokeWidth=1;fontFamily=Verdana;fontSize=12;align=center;size=20;" parent="1" vertex="1">
          <mxGeometry x="970" y="294" width="85" height="42" as="geometry" />
        </mxCell>
        <mxCell id="EVS3zEjeQcRhhYnlzs17-1" value="Ubah Data User Admin" style="swimlane;html=1;childLayout=stackLayout;startSize=20;rounded=0;shadow=0;comic=0;labelBackgroundColor=none;strokeWidth=1;fontFamily=Verdana;fontSize=12;align=center;" parent="1" vertex="1">
          <mxGeometry x="560" y="680" width="500" height="620" as="geometry">
            <mxRectangle x="40" y="20" width="70" height="30" as="alternateBounds" />
          </mxGeometry>
        </mxCell>
        <mxCell id="EVS3zEjeQcRhhYnlzs17-2" value="User (Super)" style="swimlane;html=1;startSize=20;" parent="EVS3zEjeQcRhhYnlzs17-1" vertex="1">
          <mxGeometry y="20" width="250" height="600" as="geometry" />
        </mxCell>
        <mxCell id="EVS3zEjeQcRhhYnlzs17-3" value="" style="ellipse;whiteSpace=wrap;html=1;rounded=0;shadow=0;comic=0;labelBackgroundColor=none;strokeWidth=1;fillColor=#000000;fontFamily=Verdana;fontSize=12;align=center;" parent="EVS3zEjeQcRhhYnlzs17-2" vertex="1">
          <mxGeometry x="105" y="40" width="40" height="40" as="geometry" />
        </mxCell>
        <mxCell id="EVS3zEjeQcRhhYnlzs17-4" value="Mengakses Halaman Kelola User Admin" style="rounded=1;whiteSpace=wrap;html=1;shadow=0;comic=0;labelBackgroundColor=none;strokeWidth=1;fontFamily=Verdana;fontSize=12;align=center;arcSize=50;" parent="EVS3zEjeQcRhhYnlzs17-2" vertex="1">
          <mxGeometry x="53.75" y="110" width="142.5" height="40" as="geometry" />
        </mxCell>
        <mxCell id="EVS3zEjeQcRhhYnlzs17-5" style="edgeStyle=orthogonalEdgeStyle;rounded=0;html=1;labelBackgroundColor=none;startArrow=none;startFill=0;startSize=5;endArrow=classicThin;endFill=1;endSize=5;jettySize=auto;orthogonalLoop=1;strokeWidth=1;fontFamily=Verdana;fontSize=12" parent="EVS3zEjeQcRhhYnlzs17-2" source="EVS3zEjeQcRhhYnlzs17-3" target="EVS3zEjeQcRhhYnlzs17-4" edge="1">
          <mxGeometry relative="1" as="geometry" />
        </mxCell>
        <mxCell id="EVS3zEjeQcRhhYnlzs17-7" value="Memilih data dan klik Tombol Ubah" style="rounded=1;whiteSpace=wrap;html=1;shadow=0;comic=0;labelBackgroundColor=none;strokeWidth=1;fontFamily=Verdana;fontSize=12;align=center;arcSize=50;" parent="EVS3zEjeQcRhhYnlzs17-2" vertex="1">
          <mxGeometry x="63.75" y="180" width="122.5" height="40" as="geometry" />
        </mxCell>
        <mxCell id="EVS3zEjeQcRhhYnlzs17-62" value="Mengubah isi Form Ubah Data" style="rounded=1;whiteSpace=wrap;html=1;shadow=0;comic=0;labelBackgroundColor=none;strokeWidth=1;fontFamily=Verdana;fontSize=12;align=center;arcSize=50;" parent="EVS3zEjeQcRhhYnlzs17-2" vertex="1">
          <mxGeometry x="67.5" y="250" width="115" height="40" as="geometry" />
        </mxCell>
        <mxCell id="EVS3zEjeQcRhhYnlzs17-9" value="Sistem" style="swimlane;html=1;startSize=20;" parent="EVS3zEjeQcRhhYnlzs17-1" vertex="1">
          <mxGeometry x="250" y="20" width="250" height="600" as="geometry" />
        </mxCell>
        <mxCell id="EVS3zEjeQcRhhYnlzs17-10" value="Menampilkan daftar data User Admin" style="rounded=1;whiteSpace=wrap;html=1;shadow=0;comic=0;labelBackgroundColor=none;strokeWidth=1;fontFamily=Verdana;fontSize=12;align=center;arcSize=50;" parent="EVS3zEjeQcRhhYnlzs17-9" vertex="1">
          <mxGeometry x="53.75" y="110" width="142.5" height="40" as="geometry" />
        </mxCell>
        <mxCell id="EVS3zEjeQcRhhYnlzs17-11" style="edgeStyle=orthogonalEdgeStyle;rounded=0;orthogonalLoop=1;jettySize=auto;html=1;" parent="EVS3zEjeQcRhhYnlzs17-9" source="EVS3zEjeQcRhhYnlzs17-12" target="EVS3zEjeQcRhhYnlzs17-17" edge="1">
          <mxGeometry relative="1" as="geometry" />
        </mxCell>
        <mxCell id="EVS3zEjeQcRhhYnlzs17-12" value="Validasi input" style="rounded=1;whiteSpace=wrap;html=1;shadow=0;comic=0;labelBackgroundColor=none;strokeWidth=1;fontFamily=Verdana;fontSize=12;align=center;arcSize=50;" parent="EVS3zEjeQcRhhYnlzs17-9" vertex="1">
          <mxGeometry x="67.5" y="250" width="115" height="40" as="geometry" />
        </mxCell>
        <mxCell id="EVS3zEjeQcRhhYnlzs17-13" style="edgeStyle=orthogonalEdgeStyle;rounded=0;orthogonalLoop=1;jettySize=auto;html=1;" parent="EVS3zEjeQcRhhYnlzs17-9" source="EVS3zEjeQcRhhYnlzs17-17" target="EVS3zEjeQcRhhYnlzs17-19" edge="1">
          <mxGeometry relative="1" as="geometry">
            <Array as="points">
              <mxPoint x="167" y="345" />
            </Array>
          </mxGeometry>
        </mxCell>
        <mxCell id="EVS3zEjeQcRhhYnlzs17-14" value="False" style="edgeLabel;html=1;align=center;verticalAlign=middle;resizable=0;points=[];" parent="EVS3zEjeQcRhhYnlzs17-13" vertex="1" connectable="0">
          <mxGeometry x="-0.0605" y="2" relative="1" as="geometry">
            <mxPoint y="-17" as="offset" />
          </mxGeometry>
        </mxCell>
        <mxCell id="EVS3zEjeQcRhhYnlzs17-15" style="edgeStyle=orthogonalEdgeStyle;rounded=0;orthogonalLoop=1;jettySize=auto;html=1;" parent="EVS3zEjeQcRhhYnlzs17-9" source="EVS3zEjeQcRhhYnlzs17-17" target="EVS3zEjeQcRhhYnlzs17-21" edge="1">
          <mxGeometry relative="1" as="geometry">
            <Array as="points">
              <mxPoint x="30" y="345" />
              <mxPoint x="30" y="490" />
            </Array>
          </mxGeometry>
        </mxCell>
        <mxCell id="EVS3zEjeQcRhhYnlzs17-16" value="True" style="edgeLabel;html=1;align=center;verticalAlign=middle;resizable=0;points=[];" parent="EVS3zEjeQcRhhYnlzs17-15" vertex="1" connectable="0">
          <mxGeometry x="0.1515" y="-4" relative="1" as="geometry">
            <mxPoint as="offset" />
          </mxGeometry>
        </mxCell>
        <mxCell id="EVS3zEjeQcRhhYnlzs17-17" value="Valid?" style="points=[[0.25,0.25,0],[0.5,0,0],[0.75,0.25,0],[1,0.5,0],[0.75,0.75,0],[0.5,1,0],[0.25,0.75,0],[0,0.5,0]];shape=mxgraph.bpmn.gateway2;html=1;verticalLabelPosition=bottom;labelBackgroundColor=#ffffff;verticalAlign=top;align=center;perimeter=rhombusPerimeter;outlineConnect=0;outline=none;symbol=none;rotation=0;" parent="EVS3zEjeQcRhhYnlzs17-9" vertex="1">
          <mxGeometry x="100.00000000000011" y="320" width="50" height="50" as="geometry" />
        </mxCell>
        <mxCell id="EVS3zEjeQcRhhYnlzs17-18" style="edgeStyle=orthogonalEdgeStyle;rounded=0;orthogonalLoop=1;jettySize=auto;html=1;" parent="EVS3zEjeQcRhhYnlzs17-9" source="EVS3zEjeQcRhhYnlzs17-19" target="EVS3zEjeQcRhhYnlzs17-61" edge="1">
          <mxGeometry relative="1" as="geometry">
            <Array as="points">
              <mxPoint x="230" y="420" />
              <mxPoint x="230" y="200" />
            </Array>
          </mxGeometry>
        </mxCell>
        <mxCell id="EVS3zEjeQcRhhYnlzs17-19" value="Menampilkan Pesan Kesalahan" style="rounded=1;whiteSpace=wrap;html=1;shadow=0;comic=0;labelBackgroundColor=none;strokeWidth=1;fontFamily=Verdana;fontSize=12;align=center;arcSize=50;" parent="EVS3zEjeQcRhhYnlzs17-9" vertex="1">
          <mxGeometry x="100" y="403" width="115" height="40" as="geometry" />
        </mxCell>
        <mxCell id="EVS3zEjeQcRhhYnlzs17-20" style="edgeStyle=orthogonalEdgeStyle;rounded=0;orthogonalLoop=1;jettySize=auto;html=1;entryX=0.5;entryY=0;entryDx=0;entryDy=0;" parent="EVS3zEjeQcRhhYnlzs17-9" source="EVS3zEjeQcRhhYnlzs17-21" target="EVS3zEjeQcRhhYnlzs17-22" edge="1">
          <mxGeometry relative="1" as="geometry" />
        </mxCell>
        <mxCell id="EVS3zEjeQcRhhYnlzs17-21" value="Tampilkan Halaman Kelola User Admin" style="rounded=1;whiteSpace=wrap;html=1;shadow=0;comic=0;labelBackgroundColor=none;strokeWidth=1;fontFamily=Verdana;fontSize=12;align=center;arcSize=50;" parent="EVS3zEjeQcRhhYnlzs17-9" vertex="1">
          <mxGeometry x="53.75" y="470" width="142.5" height="40" as="geometry" />
        </mxCell>
        <mxCell id="EVS3zEjeQcRhhYnlzs17-22" value="" style="shape=mxgraph.bpmn.shape;html=1;verticalLabelPosition=bottom;labelBackgroundColor=#ffffff;verticalAlign=top;perimeter=ellipsePerimeter;outline=end;symbol=terminate;rounded=0;shadow=0;comic=0;strokeWidth=1;fontFamily=Verdana;fontSize=12;align=center;" parent="EVS3zEjeQcRhhYnlzs17-9" vertex="1">
          <mxGeometry x="105" y="540" width="40" height="40" as="geometry" />
        </mxCell>
        <mxCell id="EVS3zEjeQcRhhYnlzs17-61" value="Menampilkan Form Ubah Data" style="rounded=1;whiteSpace=wrap;html=1;shadow=0;comic=0;labelBackgroundColor=none;strokeWidth=1;fontFamily=Verdana;fontSize=12;align=center;arcSize=50;" parent="EVS3zEjeQcRhhYnlzs17-9" vertex="1">
          <mxGeometry x="58.75" y="180" width="132.5" height="40" as="geometry" />
        </mxCell>
        <mxCell id="EVS3zEjeQcRhhYnlzs17-23" style="edgeStyle=orthogonalEdgeStyle;rounded=0;orthogonalLoop=1;jettySize=auto;html=1;" parent="EVS3zEjeQcRhhYnlzs17-1" source="EVS3zEjeQcRhhYnlzs17-4" target="EVS3zEjeQcRhhYnlzs17-10" edge="1">
          <mxGeometry relative="1" as="geometry">
            <mxPoint x="325" y="140" as="targetPoint" />
          </mxGeometry>
        </mxCell>
        <mxCell id="EVS3zEjeQcRhhYnlzs17-24" style="edgeStyle=orthogonalEdgeStyle;rounded=0;orthogonalLoop=1;jettySize=auto;html=1;" parent="EVS3zEjeQcRhhYnlzs17-1" source="EVS3zEjeQcRhhYnlzs17-10" target="EVS3zEjeQcRhhYnlzs17-7" edge="1">
          <mxGeometry relative="1" as="geometry">
            <mxPoint x="370.0588235294117" y="155" as="sourcePoint" />
            <Array as="points">
              <mxPoint x="370" y="180" />
              <mxPoint x="125" y="180" />
            </Array>
          </mxGeometry>
        </mxCell>
        <mxCell id="EVS3zEjeQcRhhYnlzs17-25" style="edgeStyle=orthogonalEdgeStyle;rounded=0;orthogonalLoop=1;jettySize=auto;html=1;" parent="EVS3zEjeQcRhhYnlzs17-1" source="EVS3zEjeQcRhhYnlzs17-62" target="EVS3zEjeQcRhhYnlzs17-12" edge="1">
          <mxGeometry relative="1" as="geometry">
            <mxPoint x="155" y="289.9999999999998" as="sourcePoint" />
          </mxGeometry>
        </mxCell>
        <mxCell id="EVS3zEjeQcRhhYnlzs17-6" style="edgeStyle=orthogonalEdgeStyle;rounded=0;orthogonalLoop=1;jettySize=auto;html=1;" parent="EVS3zEjeQcRhhYnlzs17-1" source="EVS3zEjeQcRhhYnlzs17-7" target="EVS3zEjeQcRhhYnlzs17-61" edge="1">
          <mxGeometry relative="1" as="geometry">
            <mxPoint x="97.47058823529414" y="269.9999999999998" as="targetPoint" />
          </mxGeometry>
        </mxCell>
        <mxCell id="EVS3zEjeQcRhhYnlzs17-63" style="edgeStyle=orthogonalEdgeStyle;rounded=0;orthogonalLoop=1;jettySize=auto;html=1;" parent="EVS3zEjeQcRhhYnlzs17-1" source="EVS3zEjeQcRhhYnlzs17-61" target="EVS3zEjeQcRhhYnlzs17-62" edge="1">
          <mxGeometry relative="1" as="geometry">
            <Array as="points">
              <mxPoint x="375" y="250" />
              <mxPoint x="125" y="250" />
            </Array>
          </mxGeometry>
        </mxCell>
        <mxCell id="EVS3zEjeQcRhhYnlzs17-26" value="Tambah Data User Admin" style="swimlane;html=1;childLayout=stackLayout;startSize=20;rounded=0;shadow=0;comic=0;labelBackgroundColor=none;strokeWidth=1;fontFamily=Verdana;fontSize=12;align=center;" parent="1" vertex="1">
          <mxGeometry x="40" y="680" width="500" height="620" as="geometry">
            <mxRectangle x="40" y="20" width="70" height="30" as="alternateBounds" />
          </mxGeometry>
        </mxCell>
        <mxCell id="EVS3zEjeQcRhhYnlzs17-27" value="User (Super)" style="swimlane;html=1;startSize=20;" parent="EVS3zEjeQcRhhYnlzs17-26" vertex="1">
          <mxGeometry y="20" width="250" height="600" as="geometry" />
        </mxCell>
        <mxCell id="EVS3zEjeQcRhhYnlzs17-28" value="" style="ellipse;whiteSpace=wrap;html=1;rounded=0;shadow=0;comic=0;labelBackgroundColor=none;strokeWidth=1;fillColor=#000000;fontFamily=Verdana;fontSize=12;align=center;" parent="EVS3zEjeQcRhhYnlzs17-27" vertex="1">
          <mxGeometry x="105" y="40" width="40" height="40" as="geometry" />
        </mxCell>
        <mxCell id="EVS3zEjeQcRhhYnlzs17-29" value="Mengakses Halaman Kelola User Admin" style="rounded=1;whiteSpace=wrap;html=1;shadow=0;comic=0;labelBackgroundColor=none;strokeWidth=1;fontFamily=Verdana;fontSize=12;align=center;arcSize=50;" parent="EVS3zEjeQcRhhYnlzs17-27" vertex="1">
          <mxGeometry x="53.75" y="100" width="142.5" height="40" as="geometry" />
        </mxCell>
        <mxCell id="EVS3zEjeQcRhhYnlzs17-30" style="edgeStyle=orthogonalEdgeStyle;rounded=0;html=1;labelBackgroundColor=none;startArrow=none;startFill=0;startSize=5;endArrow=classicThin;endFill=1;endSize=5;jettySize=auto;orthogonalLoop=1;strokeWidth=1;fontFamily=Verdana;fontSize=12" parent="EVS3zEjeQcRhhYnlzs17-27" source="EVS3zEjeQcRhhYnlzs17-28" target="EVS3zEjeQcRhhYnlzs17-29" edge="1">
          <mxGeometry relative="1" as="geometry" />
        </mxCell>
        <mxCell id="EVS3zEjeQcRhhYnlzs17-32" value="Klik Tombol Tambah Data" style="rounded=1;whiteSpace=wrap;html=1;shadow=0;comic=0;labelBackgroundColor=none;strokeWidth=1;fontFamily=Verdana;fontSize=12;align=center;arcSize=50;" parent="EVS3zEjeQcRhhYnlzs17-27" vertex="1">
          <mxGeometry x="67.5" y="160" width="115" height="40" as="geometry" />
        </mxCell>
        <mxCell id="EVS3zEjeQcRhhYnlzs17-52" value="Mengisi Form Tambah Data" style="rounded=1;whiteSpace=wrap;html=1;shadow=0;comic=0;labelBackgroundColor=none;strokeWidth=1;fontFamily=Verdana;fontSize=12;align=center;arcSize=50;" parent="EVS3zEjeQcRhhYnlzs17-27" vertex="1">
          <mxGeometry x="67.5" y="240" width="115" height="40" as="geometry" />
        </mxCell>
        <mxCell id="EVS3zEjeQcRhhYnlzs17-34" value="Sistem" style="swimlane;html=1;startSize=20;" parent="EVS3zEjeQcRhhYnlzs17-26" vertex="1">
          <mxGeometry x="250" y="20" width="250" height="600" as="geometry" />
        </mxCell>
        <mxCell id="EVS3zEjeQcRhhYnlzs17-35" value="Menampilkan daftar data User Admin" style="rounded=1;whiteSpace=wrap;html=1;shadow=0;comic=0;labelBackgroundColor=none;strokeWidth=1;fontFamily=Verdana;fontSize=12;align=center;arcSize=50;" parent="EVS3zEjeQcRhhYnlzs17-34" vertex="1">
          <mxGeometry x="53.75" y="100" width="142.5" height="40" as="geometry" />
        </mxCell>
        <mxCell id="EVS3zEjeQcRhhYnlzs17-37" value="Menampilkan Form Tambah Data" style="rounded=1;whiteSpace=wrap;html=1;shadow=0;comic=0;labelBackgroundColor=none;strokeWidth=1;fontFamily=Verdana;fontSize=12;align=center;arcSize=50;" parent="EVS3zEjeQcRhhYnlzs17-34" vertex="1">
          <mxGeometry x="58.75" y="200" width="132.5" height="40" as="geometry" />
        </mxCell>
        <mxCell id="EVS3zEjeQcRhhYnlzs17-38" style="edgeStyle=orthogonalEdgeStyle;rounded=0;orthogonalLoop=1;jettySize=auto;html=1;" parent="EVS3zEjeQcRhhYnlzs17-34" source="EVS3zEjeQcRhhYnlzs17-42" target="EVS3zEjeQcRhhYnlzs17-44" edge="1">
          <mxGeometry relative="1" as="geometry">
            <Array as="points">
              <mxPoint x="167" y="365" />
            </Array>
          </mxGeometry>
        </mxCell>
        <mxCell id="EVS3zEjeQcRhhYnlzs17-39" value="False" style="edgeLabel;html=1;align=center;verticalAlign=middle;resizable=0;points=[];" parent="EVS3zEjeQcRhhYnlzs17-38" vertex="1" connectable="0">
          <mxGeometry x="-0.0605" y="2" relative="1" as="geometry">
            <mxPoint y="-17" as="offset" />
          </mxGeometry>
        </mxCell>
        <mxCell id="EVS3zEjeQcRhhYnlzs17-40" style="edgeStyle=orthogonalEdgeStyle;rounded=0;orthogonalLoop=1;jettySize=auto;html=1;" parent="EVS3zEjeQcRhhYnlzs17-34" source="EVS3zEjeQcRhhYnlzs17-42" target="EVS3zEjeQcRhhYnlzs17-46" edge="1">
          <mxGeometry relative="1" as="geometry">
            <Array as="points">
              <mxPoint x="30" y="365" />
              <mxPoint x="30" y="490" />
            </Array>
          </mxGeometry>
        </mxCell>
        <mxCell id="EVS3zEjeQcRhhYnlzs17-41" value="True" style="edgeLabel;html=1;align=center;verticalAlign=middle;resizable=0;points=[];" parent="EVS3zEjeQcRhhYnlzs17-40" vertex="1" connectable="0">
          <mxGeometry x="0.1515" y="-4" relative="1" as="geometry">
            <mxPoint as="offset" />
          </mxGeometry>
        </mxCell>
        <mxCell id="EVS3zEjeQcRhhYnlzs17-42" value="Valid?" style="points=[[0.25,0.25,0],[0.5,0,0],[0.75,0.25,0],[1,0.5,0],[0.75,0.75,0],[0.5,1,0],[0.25,0.75,0],[0,0.5,0]];shape=mxgraph.bpmn.gateway2;html=1;verticalLabelPosition=bottom;labelBackgroundColor=#ffffff;verticalAlign=top;align=center;perimeter=rhombusPerimeter;outlineConnect=0;outline=none;symbol=none;rotation=0;" parent="EVS3zEjeQcRhhYnlzs17-34" vertex="1">
          <mxGeometry x="100.00000000000011" y="340" width="50" height="50" as="geometry" />
        </mxCell>
        <mxCell id="EVS3zEjeQcRhhYnlzs17-43" style="edgeStyle=orthogonalEdgeStyle;rounded=0;orthogonalLoop=1;jettySize=auto;html=1;" parent="EVS3zEjeQcRhhYnlzs17-34" source="EVS3zEjeQcRhhYnlzs17-44" target="EVS3zEjeQcRhhYnlzs17-37" edge="1">
          <mxGeometry relative="1" as="geometry">
            <Array as="points">
              <mxPoint x="230" y="440" />
              <mxPoint x="230" y="220" />
            </Array>
          </mxGeometry>
        </mxCell>
        <mxCell id="EVS3zEjeQcRhhYnlzs17-44" value="Menampilkan Pesan Kesalahan" style="rounded=1;whiteSpace=wrap;html=1;shadow=0;comic=0;labelBackgroundColor=none;strokeWidth=1;fontFamily=Verdana;fontSize=12;align=center;arcSize=50;" parent="EVS3zEjeQcRhhYnlzs17-34" vertex="1">
          <mxGeometry x="100" y="420" width="115" height="40" as="geometry" />
        </mxCell>
        <mxCell id="EVS3zEjeQcRhhYnlzs17-45" style="edgeStyle=orthogonalEdgeStyle;rounded=0;orthogonalLoop=1;jettySize=auto;html=1;entryX=0.5;entryY=0;entryDx=0;entryDy=0;" parent="EVS3zEjeQcRhhYnlzs17-34" source="EVS3zEjeQcRhhYnlzs17-46" target="EVS3zEjeQcRhhYnlzs17-47" edge="1">
          <mxGeometry relative="1" as="geometry" />
        </mxCell>
        <mxCell id="EVS3zEjeQcRhhYnlzs17-46" value="Tampilkan Halaman Kelola User Admin" style="rounded=1;whiteSpace=wrap;html=1;shadow=0;comic=0;labelBackgroundColor=none;strokeWidth=1;fontFamily=Verdana;fontSize=12;align=center;arcSize=50;" parent="EVS3zEjeQcRhhYnlzs17-34" vertex="1">
          <mxGeometry x="53.75" y="470" width="142.5" height="40" as="geometry" />
        </mxCell>
        <mxCell id="EVS3zEjeQcRhhYnlzs17-47" value="" style="shape=mxgraph.bpmn.shape;html=1;verticalLabelPosition=bottom;labelBackgroundColor=#ffffff;verticalAlign=top;perimeter=ellipsePerimeter;outline=end;symbol=terminate;rounded=0;shadow=0;comic=0;strokeWidth=1;fontFamily=Verdana;fontSize=12;align=center;" parent="EVS3zEjeQcRhhYnlzs17-34" vertex="1">
          <mxGeometry x="105" y="540" width="40" height="40" as="geometry" />
        </mxCell>
        <mxCell id="EVS3zEjeQcRhhYnlzs17-56" style="edgeStyle=orthogonalEdgeStyle;rounded=0;orthogonalLoop=1;jettySize=auto;html=1;" parent="EVS3zEjeQcRhhYnlzs17-34" source="EVS3zEjeQcRhhYnlzs17-53" target="EVS3zEjeQcRhhYnlzs17-42" edge="1">
          <mxGeometry relative="1" as="geometry" />
        </mxCell>
        <mxCell id="EVS3zEjeQcRhhYnlzs17-53" value="Validasi input" style="rounded=1;whiteSpace=wrap;html=1;shadow=0;comic=0;labelBackgroundColor=none;strokeWidth=1;fontFamily=Verdana;fontSize=12;align=center;arcSize=50;" parent="EVS3zEjeQcRhhYnlzs17-34" vertex="1">
          <mxGeometry x="67.5" y="280" width="115" height="40" as="geometry" />
        </mxCell>
        <mxCell id="EVS3zEjeQcRhhYnlzs17-48" style="edgeStyle=orthogonalEdgeStyle;rounded=0;orthogonalLoop=1;jettySize=auto;html=1;" parent="EVS3zEjeQcRhhYnlzs17-26" source="EVS3zEjeQcRhhYnlzs17-29" target="EVS3zEjeQcRhhYnlzs17-35" edge="1">
          <mxGeometry relative="1" as="geometry">
            <mxPoint x="325" y="140" as="targetPoint" />
          </mxGeometry>
        </mxCell>
        <mxCell id="EVS3zEjeQcRhhYnlzs17-49" style="edgeStyle=orthogonalEdgeStyle;rounded=0;orthogonalLoop=1;jettySize=auto;html=1;" parent="EVS3zEjeQcRhhYnlzs17-26" source="EVS3zEjeQcRhhYnlzs17-35" target="EVS3zEjeQcRhhYnlzs17-32" edge="1">
          <mxGeometry relative="1" as="geometry">
            <mxPoint x="370.0588235294117" y="155" as="sourcePoint" />
            <Array as="points">
              <mxPoint x="370" y="200" />
            </Array>
          </mxGeometry>
        </mxCell>
        <mxCell id="EVS3zEjeQcRhhYnlzs17-51" style="edgeStyle=orthogonalEdgeStyle;rounded=0;orthogonalLoop=1;jettySize=auto;html=1;" parent="EVS3zEjeQcRhhYnlzs17-26" source="EVS3zEjeQcRhhYnlzs17-32" target="EVS3zEjeQcRhhYnlzs17-37" edge="1">
          <mxGeometry relative="1" as="geometry">
            <Array as="points">
              <mxPoint x="125" y="240" />
            </Array>
          </mxGeometry>
        </mxCell>
        <mxCell id="EVS3zEjeQcRhhYnlzs17-36" style="edgeStyle=orthogonalEdgeStyle;rounded=0;orthogonalLoop=1;jettySize=auto;html=1;" parent="EVS3zEjeQcRhhYnlzs17-26" source="EVS3zEjeQcRhhYnlzs17-37" target="EVS3zEjeQcRhhYnlzs17-52" edge="1">
          <mxGeometry relative="1" as="geometry">
            <Array as="points">
              <mxPoint x="375" y="280" />
            </Array>
          </mxGeometry>
        </mxCell>
        <mxCell id="EVS3zEjeQcRhhYnlzs17-55" style="edgeStyle=orthogonalEdgeStyle;rounded=0;orthogonalLoop=1;jettySize=auto;html=1;" parent="EVS3zEjeQcRhhYnlzs17-26" source="EVS3zEjeQcRhhYnlzs17-52" target="EVS3zEjeQcRhhYnlzs17-53" edge="1">
          <mxGeometry relative="1" as="geometry">
            <Array as="points">
              <mxPoint x="125" y="320" />
            </Array>
          </mxGeometry>
        </mxCell>
        <mxCell id="AIw0YnytM_WcK_We3Al_-55" value="Ubah Data Kategori Produk" style="swimlane;html=1;childLayout=stackLayout;startSize=20;rounded=0;shadow=0;comic=0;labelBackgroundColor=none;strokeWidth=1;fontFamily=Verdana;fontSize=12;align=center;" vertex="1" parent="1">
          <mxGeometry x="560" y="1340" width="500" height="620" as="geometry">
            <mxRectangle x="40" y="20" width="70" height="30" as="alternateBounds" />
          </mxGeometry>
        </mxCell>
        <mxCell id="AIw0YnytM_WcK_We3Al_-56" value="User (Super, Admin)" style="swimlane;html=1;startSize=20;" vertex="1" parent="AIw0YnytM_WcK_We3Al_-55">
          <mxGeometry y="20" width="250" height="600" as="geometry" />
        </mxCell>
        <mxCell id="AIw0YnytM_WcK_We3Al_-57" value="" style="ellipse;whiteSpace=wrap;html=1;rounded=0;shadow=0;comic=0;labelBackgroundColor=none;strokeWidth=1;fillColor=#000000;fontFamily=Verdana;fontSize=12;align=center;" vertex="1" parent="AIw0YnytM_WcK_We3Al_-56">
          <mxGeometry x="105" y="40" width="40" height="40" as="geometry" />
        </mxCell>
        <mxCell id="AIw0YnytM_WcK_We3Al_-58" value="Mengakses Halaman Kategori Produk" style="rounded=1;whiteSpace=wrap;html=1;shadow=0;comic=0;labelBackgroundColor=none;strokeWidth=1;fontFamily=Verdana;fontSize=12;align=center;arcSize=50;" vertex="1" parent="AIw0YnytM_WcK_We3Al_-56">
          <mxGeometry x="53.75" y="110" width="142.5" height="40" as="geometry" />
        </mxCell>
        <mxCell id="AIw0YnytM_WcK_We3Al_-59" style="edgeStyle=orthogonalEdgeStyle;rounded=0;html=1;labelBackgroundColor=none;startArrow=none;startFill=0;startSize=5;endArrow=classicThin;endFill=1;endSize=5;jettySize=auto;orthogonalLoop=1;strokeWidth=1;fontFamily=Verdana;fontSize=12" edge="1" parent="AIw0YnytM_WcK_We3Al_-56" source="AIw0YnytM_WcK_We3Al_-57" target="AIw0YnytM_WcK_We3Al_-58">
          <mxGeometry relative="1" as="geometry" />
        </mxCell>
        <mxCell id="AIw0YnytM_WcK_We3Al_-60" value="Memilih data dan klik Tombol Ubah" style="rounded=1;whiteSpace=wrap;html=1;shadow=0;comic=0;labelBackgroundColor=none;strokeWidth=1;fontFamily=Verdana;fontSize=12;align=center;arcSize=50;" vertex="1" parent="AIw0YnytM_WcK_We3Al_-56">
          <mxGeometry x="63.75" y="180" width="122.5" height="40" as="geometry" />
        </mxCell>
        <mxCell id="AIw0YnytM_WcK_We3Al_-61" value="Mengubah isi Form Ubah Data" style="rounded=1;whiteSpace=wrap;html=1;shadow=0;comic=0;labelBackgroundColor=none;strokeWidth=1;fontFamily=Verdana;fontSize=12;align=center;arcSize=50;" vertex="1" parent="AIw0YnytM_WcK_We3Al_-56">
          <mxGeometry x="67.5" y="250" width="115" height="40" as="geometry" />
        </mxCell>
        <mxCell id="AIw0YnytM_WcK_We3Al_-62" value="Sistem" style="swimlane;html=1;startSize=20;" vertex="1" parent="AIw0YnytM_WcK_We3Al_-55">
          <mxGeometry x="250" y="20" width="250" height="600" as="geometry" />
        </mxCell>
        <mxCell id="AIw0YnytM_WcK_We3Al_-63" value="Menampilkan daftar data Kategori Produk" style="rounded=1;whiteSpace=wrap;html=1;shadow=0;comic=0;labelBackgroundColor=none;strokeWidth=1;fontFamily=Verdana;fontSize=12;align=center;arcSize=50;" vertex="1" parent="AIw0YnytM_WcK_We3Al_-62">
          <mxGeometry x="53.75" y="110" width="142.5" height="40" as="geometry" />
        </mxCell>
        <mxCell id="AIw0YnytM_WcK_We3Al_-64" style="edgeStyle=orthogonalEdgeStyle;rounded=0;orthogonalLoop=1;jettySize=auto;html=1;" edge="1" parent="AIw0YnytM_WcK_We3Al_-62" source="AIw0YnytM_WcK_We3Al_-65" target="AIw0YnytM_WcK_We3Al_-70">
          <mxGeometry relative="1" as="geometry" />
        </mxCell>
        <mxCell id="AIw0YnytM_WcK_We3Al_-65" value="Validasi input" style="rounded=1;whiteSpace=wrap;html=1;shadow=0;comic=0;labelBackgroundColor=none;strokeWidth=1;fontFamily=Verdana;fontSize=12;align=center;arcSize=50;" vertex="1" parent="AIw0YnytM_WcK_We3Al_-62">
          <mxGeometry x="67.5" y="250" width="115" height="40" as="geometry" />
        </mxCell>
        <mxCell id="AIw0YnytM_WcK_We3Al_-66" style="edgeStyle=orthogonalEdgeStyle;rounded=0;orthogonalLoop=1;jettySize=auto;html=1;" edge="1" parent="AIw0YnytM_WcK_We3Al_-62" source="AIw0YnytM_WcK_We3Al_-70" target="AIw0YnytM_WcK_We3Al_-72">
          <mxGeometry relative="1" as="geometry">
            <Array as="points">
              <mxPoint x="167" y="345" />
            </Array>
          </mxGeometry>
        </mxCell>
        <mxCell id="AIw0YnytM_WcK_We3Al_-67" value="False" style="edgeLabel;html=1;align=center;verticalAlign=middle;resizable=0;points=[];" vertex="1" connectable="0" parent="AIw0YnytM_WcK_We3Al_-66">
          <mxGeometry x="-0.0605" y="2" relative="1" as="geometry">
            <mxPoint y="-17" as="offset" />
          </mxGeometry>
        </mxCell>
        <mxCell id="AIw0YnytM_WcK_We3Al_-68" style="edgeStyle=orthogonalEdgeStyle;rounded=0;orthogonalLoop=1;jettySize=auto;html=1;" edge="1" parent="AIw0YnytM_WcK_We3Al_-62" source="AIw0YnytM_WcK_We3Al_-70" target="AIw0YnytM_WcK_We3Al_-74">
          <mxGeometry relative="1" as="geometry">
            <Array as="points">
              <mxPoint x="30" y="345" />
              <mxPoint x="30" y="490" />
            </Array>
          </mxGeometry>
        </mxCell>
        <mxCell id="AIw0YnytM_WcK_We3Al_-69" value="True" style="edgeLabel;html=1;align=center;verticalAlign=middle;resizable=0;points=[];" vertex="1" connectable="0" parent="AIw0YnytM_WcK_We3Al_-68">
          <mxGeometry x="0.1515" y="-4" relative="1" as="geometry">
            <mxPoint as="offset" />
          </mxGeometry>
        </mxCell>
        <mxCell id="AIw0YnytM_WcK_We3Al_-70" value="Valid?" style="points=[[0.25,0.25,0],[0.5,0,0],[0.75,0.25,0],[1,0.5,0],[0.75,0.75,0],[0.5,1,0],[0.25,0.75,0],[0,0.5,0]];shape=mxgraph.bpmn.gateway2;html=1;verticalLabelPosition=bottom;labelBackgroundColor=#ffffff;verticalAlign=top;align=center;perimeter=rhombusPerimeter;outlineConnect=0;outline=none;symbol=none;rotation=0;" vertex="1" parent="AIw0YnytM_WcK_We3Al_-62">
          <mxGeometry x="100.00000000000011" y="320" width="50" height="50" as="geometry" />
        </mxCell>
        <mxCell id="AIw0YnytM_WcK_We3Al_-71" style="edgeStyle=orthogonalEdgeStyle;rounded=0;orthogonalLoop=1;jettySize=auto;html=1;" edge="1" parent="AIw0YnytM_WcK_We3Al_-62" source="AIw0YnytM_WcK_We3Al_-72" target="AIw0YnytM_WcK_We3Al_-76">
          <mxGeometry relative="1" as="geometry">
            <Array as="points">
              <mxPoint x="230" y="420" />
              <mxPoint x="230" y="200" />
            </Array>
          </mxGeometry>
        </mxCell>
        <mxCell id="AIw0YnytM_WcK_We3Al_-72" value="Menampilkan Pesan Kesalahan" style="rounded=1;whiteSpace=wrap;html=1;shadow=0;comic=0;labelBackgroundColor=none;strokeWidth=1;fontFamily=Verdana;fontSize=12;align=center;arcSize=50;" vertex="1" parent="AIw0YnytM_WcK_We3Al_-62">
          <mxGeometry x="100" y="403" width="115" height="40" as="geometry" />
        </mxCell>
        <mxCell id="AIw0YnytM_WcK_We3Al_-73" style="edgeStyle=orthogonalEdgeStyle;rounded=0;orthogonalLoop=1;jettySize=auto;html=1;entryX=0.5;entryY=0;entryDx=0;entryDy=0;" edge="1" parent="AIw0YnytM_WcK_We3Al_-62" source="AIw0YnytM_WcK_We3Al_-74" target="AIw0YnytM_WcK_We3Al_-75">
          <mxGeometry relative="1" as="geometry" />
        </mxCell>
        <mxCell id="AIw0YnytM_WcK_We3Al_-74" value="Tampilkan Halaman Kategori Produk" style="rounded=1;whiteSpace=wrap;html=1;shadow=0;comic=0;labelBackgroundColor=none;strokeWidth=1;fontFamily=Verdana;fontSize=12;align=center;arcSize=50;" vertex="1" parent="AIw0YnytM_WcK_We3Al_-62">
          <mxGeometry x="53.75" y="470" width="142.5" height="40" as="geometry" />
        </mxCell>
        <mxCell id="AIw0YnytM_WcK_We3Al_-75" value="" style="shape=mxgraph.bpmn.shape;html=1;verticalLabelPosition=bottom;labelBackgroundColor=#ffffff;verticalAlign=top;perimeter=ellipsePerimeter;outline=end;symbol=terminate;rounded=0;shadow=0;comic=0;strokeWidth=1;fontFamily=Verdana;fontSize=12;align=center;" vertex="1" parent="AIw0YnytM_WcK_We3Al_-62">
          <mxGeometry x="105" y="540" width="40" height="40" as="geometry" />
        </mxCell>
        <mxCell id="AIw0YnytM_WcK_We3Al_-76" value="Menampilkan Form Ubah Data" style="rounded=1;whiteSpace=wrap;html=1;shadow=0;comic=0;labelBackgroundColor=none;strokeWidth=1;fontFamily=Verdana;fontSize=12;align=center;arcSize=50;" vertex="1" parent="AIw0YnytM_WcK_We3Al_-62">
          <mxGeometry x="58.75" y="180" width="132.5" height="40" as="geometry" />
        </mxCell>
        <mxCell id="AIw0YnytM_WcK_We3Al_-77" style="edgeStyle=orthogonalEdgeStyle;rounded=0;orthogonalLoop=1;jettySize=auto;html=1;" edge="1" parent="AIw0YnytM_WcK_We3Al_-55" source="AIw0YnytM_WcK_We3Al_-58" target="AIw0YnytM_WcK_We3Al_-63">
          <mxGeometry relative="1" as="geometry">
            <mxPoint x="325" y="140" as="targetPoint" />
          </mxGeometry>
        </mxCell>
        <mxCell id="AIw0YnytM_WcK_We3Al_-78" style="edgeStyle=orthogonalEdgeStyle;rounded=0;orthogonalLoop=1;jettySize=auto;html=1;" edge="1" parent="AIw0YnytM_WcK_We3Al_-55" source="AIw0YnytM_WcK_We3Al_-63" target="AIw0YnytM_WcK_We3Al_-60">
          <mxGeometry relative="1" as="geometry">
            <mxPoint x="370.0588235294117" y="155" as="sourcePoint" />
            <Array as="points">
              <mxPoint x="370" y="180" />
              <mxPoint x="125" y="180" />
            </Array>
          </mxGeometry>
        </mxCell>
        <mxCell id="AIw0YnytM_WcK_We3Al_-79" style="edgeStyle=orthogonalEdgeStyle;rounded=0;orthogonalLoop=1;jettySize=auto;html=1;" edge="1" parent="AIw0YnytM_WcK_We3Al_-55" source="AIw0YnytM_WcK_We3Al_-61" target="AIw0YnytM_WcK_We3Al_-65">
          <mxGeometry relative="1" as="geometry">
            <mxPoint x="155" y="289.9999999999998" as="sourcePoint" />
          </mxGeometry>
        </mxCell>
        <mxCell id="AIw0YnytM_WcK_We3Al_-80" style="edgeStyle=orthogonalEdgeStyle;rounded=0;orthogonalLoop=1;jettySize=auto;html=1;" edge="1" parent="AIw0YnytM_WcK_We3Al_-55" source="AIw0YnytM_WcK_We3Al_-60" target="AIw0YnytM_WcK_We3Al_-76">
          <mxGeometry relative="1" as="geometry">
            <mxPoint x="97.47058823529414" y="269.9999999999998" as="targetPoint" />
          </mxGeometry>
        </mxCell>
        <mxCell id="AIw0YnytM_WcK_We3Al_-81" style="edgeStyle=orthogonalEdgeStyle;rounded=0;orthogonalLoop=1;jettySize=auto;html=1;" edge="1" parent="AIw0YnytM_WcK_We3Al_-55" source="AIw0YnytM_WcK_We3Al_-76" target="AIw0YnytM_WcK_We3Al_-61">
          <mxGeometry relative="1" as="geometry">
            <Array as="points">
              <mxPoint x="375" y="250" />
              <mxPoint x="125" y="250" />
            </Array>
          </mxGeometry>
        </mxCell>
        <mxCell id="AIw0YnytM_WcK_We3Al_-82" value="Tambah Data Kategori Produk" style="swimlane;html=1;childLayout=stackLayout;startSize=20;rounded=0;shadow=0;comic=0;labelBackgroundColor=none;strokeWidth=1;fontFamily=Verdana;fontSize=12;align=center;" vertex="1" parent="1">
          <mxGeometry x="40" y="1340" width="500" height="620" as="geometry">
            <mxRectangle x="40" y="20" width="70" height="30" as="alternateBounds" />
          </mxGeometry>
        </mxCell>
        <mxCell id="AIw0YnytM_WcK_We3Al_-83" value="User (Super, Admin)" style="swimlane;html=1;startSize=20;" vertex="1" parent="AIw0YnytM_WcK_We3Al_-82">
          <mxGeometry y="20" width="250" height="600" as="geometry" />
        </mxCell>
        <mxCell id="AIw0YnytM_WcK_We3Al_-84" value="" style="ellipse;whiteSpace=wrap;html=1;rounded=0;shadow=0;comic=0;labelBackgroundColor=none;strokeWidth=1;fillColor=#000000;fontFamily=Verdana;fontSize=12;align=center;" vertex="1" parent="AIw0YnytM_WcK_We3Al_-83">
          <mxGeometry x="105" y="40" width="40" height="40" as="geometry" />
        </mxCell>
        <mxCell id="AIw0YnytM_WcK_We3Al_-85" value="Mengakses Halaman Kategori Produk" style="rounded=1;whiteSpace=wrap;html=1;shadow=0;comic=0;labelBackgroundColor=none;strokeWidth=1;fontFamily=Verdana;fontSize=12;align=center;arcSize=50;" vertex="1" parent="AIw0YnytM_WcK_We3Al_-83">
          <mxGeometry x="53.75" y="100" width="142.5" height="40" as="geometry" />
        </mxCell>
        <mxCell id="AIw0YnytM_WcK_We3Al_-86" style="edgeStyle=orthogonalEdgeStyle;rounded=0;html=1;labelBackgroundColor=none;startArrow=none;startFill=0;startSize=5;endArrow=classicThin;endFill=1;endSize=5;jettySize=auto;orthogonalLoop=1;strokeWidth=1;fontFamily=Verdana;fontSize=12" edge="1" parent="AIw0YnytM_WcK_We3Al_-83" source="AIw0YnytM_WcK_We3Al_-84" target="AIw0YnytM_WcK_We3Al_-85">
          <mxGeometry relative="1" as="geometry" />
        </mxCell>
        <mxCell id="AIw0YnytM_WcK_We3Al_-87" value="Klik Tombol Tambah Data" style="rounded=1;whiteSpace=wrap;html=1;shadow=0;comic=0;labelBackgroundColor=none;strokeWidth=1;fontFamily=Verdana;fontSize=12;align=center;arcSize=50;" vertex="1" parent="AIw0YnytM_WcK_We3Al_-83">
          <mxGeometry x="67.5" y="160" width="115" height="40" as="geometry" />
        </mxCell>
        <mxCell id="AIw0YnytM_WcK_We3Al_-88" value="Mengisi Form Tambah Data" style="rounded=1;whiteSpace=wrap;html=1;shadow=0;comic=0;labelBackgroundColor=none;strokeWidth=1;fontFamily=Verdana;fontSize=12;align=center;arcSize=50;" vertex="1" parent="AIw0YnytM_WcK_We3Al_-83">
          <mxGeometry x="67.5" y="240" width="115" height="40" as="geometry" />
        </mxCell>
        <mxCell id="AIw0YnytM_WcK_We3Al_-89" value="Sistem" style="swimlane;html=1;startSize=20;" vertex="1" parent="AIw0YnytM_WcK_We3Al_-82">
          <mxGeometry x="250" y="20" width="250" height="600" as="geometry" />
        </mxCell>
        <mxCell id="AIw0YnytM_WcK_We3Al_-90" value="Menampilkan daftar data Kategori Produk" style="rounded=1;whiteSpace=wrap;html=1;shadow=0;comic=0;labelBackgroundColor=none;strokeWidth=1;fontFamily=Verdana;fontSize=12;align=center;arcSize=50;" vertex="1" parent="AIw0YnytM_WcK_We3Al_-89">
          <mxGeometry x="58.75" y="100" width="132.5" height="40" as="geometry" />
        </mxCell>
        <mxCell id="AIw0YnytM_WcK_We3Al_-91" value="Menampilkan Form Tambah Data" style="rounded=1;whiteSpace=wrap;html=1;shadow=0;comic=0;labelBackgroundColor=none;strokeWidth=1;fontFamily=Verdana;fontSize=12;align=center;arcSize=50;" vertex="1" parent="AIw0YnytM_WcK_We3Al_-89">
          <mxGeometry x="58.75" y="200" width="132.5" height="40" as="geometry" />
        </mxCell>
        <mxCell id="AIw0YnytM_WcK_We3Al_-92" style="edgeStyle=orthogonalEdgeStyle;rounded=0;orthogonalLoop=1;jettySize=auto;html=1;" edge="1" parent="AIw0YnytM_WcK_We3Al_-89" source="AIw0YnytM_WcK_We3Al_-96" target="AIw0YnytM_WcK_We3Al_-98">
          <mxGeometry relative="1" as="geometry">
            <Array as="points">
              <mxPoint x="167" y="365" />
            </Array>
          </mxGeometry>
        </mxCell>
        <mxCell id="AIw0YnytM_WcK_We3Al_-93" value="False" style="edgeLabel;html=1;align=center;verticalAlign=middle;resizable=0;points=[];" vertex="1" connectable="0" parent="AIw0YnytM_WcK_We3Al_-92">
          <mxGeometry x="-0.0605" y="2" relative="1" as="geometry">
            <mxPoint y="-17" as="offset" />
          </mxGeometry>
        </mxCell>
        <mxCell id="AIw0YnytM_WcK_We3Al_-94" style="edgeStyle=orthogonalEdgeStyle;rounded=0;orthogonalLoop=1;jettySize=auto;html=1;" edge="1" parent="AIw0YnytM_WcK_We3Al_-89" source="AIw0YnytM_WcK_We3Al_-96" target="AIw0YnytM_WcK_We3Al_-100">
          <mxGeometry relative="1" as="geometry">
            <Array as="points">
              <mxPoint x="30" y="365" />
              <mxPoint x="30" y="490" />
            </Array>
          </mxGeometry>
        </mxCell>
        <mxCell id="AIw0YnytM_WcK_We3Al_-95" value="True" style="edgeLabel;html=1;align=center;verticalAlign=middle;resizable=0;points=[];" vertex="1" connectable="0" parent="AIw0YnytM_WcK_We3Al_-94">
          <mxGeometry x="0.1515" y="-4" relative="1" as="geometry">
            <mxPoint as="offset" />
          </mxGeometry>
        </mxCell>
        <mxCell id="AIw0YnytM_WcK_We3Al_-96" value="Valid?" style="points=[[0.25,0.25,0],[0.5,0,0],[0.75,0.25,0],[1,0.5,0],[0.75,0.75,0],[0.5,1,0],[0.25,0.75,0],[0,0.5,0]];shape=mxgraph.bpmn.gateway2;html=1;verticalLabelPosition=bottom;labelBackgroundColor=#ffffff;verticalAlign=top;align=center;perimeter=rhombusPerimeter;outlineConnect=0;outline=none;symbol=none;rotation=0;" vertex="1" parent="AIw0YnytM_WcK_We3Al_-89">
          <mxGeometry x="100.00000000000011" y="340" width="50" height="50" as="geometry" />
        </mxCell>
        <mxCell id="AIw0YnytM_WcK_We3Al_-97" style="edgeStyle=orthogonalEdgeStyle;rounded=0;orthogonalLoop=1;jettySize=auto;html=1;" edge="1" parent="AIw0YnytM_WcK_We3Al_-89" source="AIw0YnytM_WcK_We3Al_-98" target="AIw0YnytM_WcK_We3Al_-91">
          <mxGeometry relative="1" as="geometry">
            <Array as="points">
              <mxPoint x="230" y="440" />
              <mxPoint x="230" y="220" />
            </Array>
          </mxGeometry>
        </mxCell>
        <mxCell id="AIw0YnytM_WcK_We3Al_-98" value="Menampilkan Pesan Kesalahan" style="rounded=1;whiteSpace=wrap;html=1;shadow=0;comic=0;labelBackgroundColor=none;strokeWidth=1;fontFamily=Verdana;fontSize=12;align=center;arcSize=50;" vertex="1" parent="AIw0YnytM_WcK_We3Al_-89">
          <mxGeometry x="100" y="420" width="115" height="40" as="geometry" />
        </mxCell>
        <mxCell id="AIw0YnytM_WcK_We3Al_-99" style="edgeStyle=orthogonalEdgeStyle;rounded=0;orthogonalLoop=1;jettySize=auto;html=1;entryX=0.5;entryY=0;entryDx=0;entryDy=0;" edge="1" parent="AIw0YnytM_WcK_We3Al_-89" source="AIw0YnytM_WcK_We3Al_-100" target="AIw0YnytM_WcK_We3Al_-101">
          <mxGeometry relative="1" as="geometry" />
        </mxCell>
        <mxCell id="AIw0YnytM_WcK_We3Al_-100" value="Tampilkan Halaman Kategori Produk" style="rounded=1;whiteSpace=wrap;html=1;shadow=0;comic=0;labelBackgroundColor=none;strokeWidth=1;fontFamily=Verdana;fontSize=12;align=center;arcSize=50;" vertex="1" parent="AIw0YnytM_WcK_We3Al_-89">
          <mxGeometry x="53.75" y="470" width="142.5" height="40" as="geometry" />
        </mxCell>
        <mxCell id="AIw0YnytM_WcK_We3Al_-101" value="" style="shape=mxgraph.bpmn.shape;html=1;verticalLabelPosition=bottom;labelBackgroundColor=#ffffff;verticalAlign=top;perimeter=ellipsePerimeter;outline=end;symbol=terminate;rounded=0;shadow=0;comic=0;strokeWidth=1;fontFamily=Verdana;fontSize=12;align=center;" vertex="1" parent="AIw0YnytM_WcK_We3Al_-89">
          <mxGeometry x="105" y="540" width="40" height="40" as="geometry" />
        </mxCell>
        <mxCell id="AIw0YnytM_WcK_We3Al_-102" style="edgeStyle=orthogonalEdgeStyle;rounded=0;orthogonalLoop=1;jettySize=auto;html=1;" edge="1" parent="AIw0YnytM_WcK_We3Al_-89" source="AIw0YnytM_WcK_We3Al_-103" target="AIw0YnytM_WcK_We3Al_-96">
          <mxGeometry relative="1" as="geometry" />
        </mxCell>
        <mxCell id="AIw0YnytM_WcK_We3Al_-103" value="Validasi input" style="rounded=1;whiteSpace=wrap;html=1;shadow=0;comic=0;labelBackgroundColor=none;strokeWidth=1;fontFamily=Verdana;fontSize=12;align=center;arcSize=50;" vertex="1" parent="AIw0YnytM_WcK_We3Al_-89">
          <mxGeometry x="67.5" y="280" width="115" height="40" as="geometry" />
        </mxCell>
        <mxCell id="AIw0YnytM_WcK_We3Al_-104" style="edgeStyle=orthogonalEdgeStyle;rounded=0;orthogonalLoop=1;jettySize=auto;html=1;" edge="1" parent="AIw0YnytM_WcK_We3Al_-82" source="AIw0YnytM_WcK_We3Al_-85" target="AIw0YnytM_WcK_We3Al_-90">
          <mxGeometry relative="1" as="geometry">
            <mxPoint x="325" y="140" as="targetPoint" />
          </mxGeometry>
        </mxCell>
        <mxCell id="AIw0YnytM_WcK_We3Al_-105" style="edgeStyle=orthogonalEdgeStyle;rounded=0;orthogonalLoop=1;jettySize=auto;html=1;" edge="1" parent="AIw0YnytM_WcK_We3Al_-82" source="AIw0YnytM_WcK_We3Al_-90" target="AIw0YnytM_WcK_We3Al_-87">
          <mxGeometry relative="1" as="geometry">
            <mxPoint x="370.0588235294117" y="155" as="sourcePoint" />
            <Array as="points">
              <mxPoint x="370" y="200" />
            </Array>
          </mxGeometry>
        </mxCell>
        <mxCell id="AIw0YnytM_WcK_We3Al_-106" style="edgeStyle=orthogonalEdgeStyle;rounded=0;orthogonalLoop=1;jettySize=auto;html=1;" edge="1" parent="AIw0YnytM_WcK_We3Al_-82" source="AIw0YnytM_WcK_We3Al_-87" target="AIw0YnytM_WcK_We3Al_-91">
          <mxGeometry relative="1" as="geometry">
            <Array as="points">
              <mxPoint x="125" y="240" />
            </Array>
          </mxGeometry>
        </mxCell>
        <mxCell id="AIw0YnytM_WcK_We3Al_-107" style="edgeStyle=orthogonalEdgeStyle;rounded=0;orthogonalLoop=1;jettySize=auto;html=1;" edge="1" parent="AIw0YnytM_WcK_We3Al_-82" source="AIw0YnytM_WcK_We3Al_-91" target="AIw0YnytM_WcK_We3Al_-88">
          <mxGeometry relative="1" as="geometry">
            <Array as="points">
              <mxPoint x="375" y="280" />
            </Array>
          </mxGeometry>
        </mxCell>
        <mxCell id="AIw0YnytM_WcK_We3Al_-108" style="edgeStyle=orthogonalEdgeStyle;rounded=0;orthogonalLoop=1;jettySize=auto;html=1;" edge="1" parent="AIw0YnytM_WcK_We3Al_-82" source="AIw0YnytM_WcK_We3Al_-88" target="AIw0YnytM_WcK_We3Al_-103">
          <mxGeometry relative="1" as="geometry">
            <Array as="points">
              <mxPoint x="125" y="320" />
            </Array>
          </mxGeometry>
        </mxCell>
        <mxCell id="AIw0YnytM_WcK_We3Al_-109" value="Hapus Data Kategori Produk" style="swimlane;html=1;childLayout=stackLayout;startSize=20;rounded=0;shadow=0;comic=0;labelBackgroundColor=none;strokeWidth=1;fontFamily=Verdana;fontSize=12;align=center;" vertex="1" parent="1">
          <mxGeometry x="1080" y="1340" width="500" height="620" as="geometry">
            <mxRectangle x="40" y="20" width="70" height="30" as="alternateBounds" />
          </mxGeometry>
        </mxCell>
        <mxCell id="AIw0YnytM_WcK_We3Al_-110" value="User (Super, Admin)" style="swimlane;html=1;startSize=20;" vertex="1" parent="AIw0YnytM_WcK_We3Al_-109">
          <mxGeometry y="20" width="250" height="600" as="geometry" />
        </mxCell>
        <mxCell id="AIw0YnytM_WcK_We3Al_-111" value="" style="ellipse;whiteSpace=wrap;html=1;rounded=0;shadow=0;comic=0;labelBackgroundColor=none;strokeWidth=1;fillColor=#000000;fontFamily=Verdana;fontSize=12;align=center;" vertex="1" parent="AIw0YnytM_WcK_We3Al_-110">
          <mxGeometry x="105" y="40" width="40" height="40" as="geometry" />
        </mxCell>
        <mxCell id="AIw0YnytM_WcK_We3Al_-112" value="Mengakses Halaman Kategori Produk" style="rounded=1;whiteSpace=wrap;html=1;shadow=0;comic=0;labelBackgroundColor=none;strokeWidth=1;fontFamily=Verdana;fontSize=12;align=center;arcSize=50;" vertex="1" parent="AIw0YnytM_WcK_We3Al_-110">
          <mxGeometry x="53.75" y="100" width="142.5" height="40" as="geometry" />
        </mxCell>
        <mxCell id="AIw0YnytM_WcK_We3Al_-113" style="edgeStyle=orthogonalEdgeStyle;rounded=0;html=1;labelBackgroundColor=none;startArrow=none;startFill=0;startSize=5;endArrow=classicThin;endFill=1;endSize=5;jettySize=auto;orthogonalLoop=1;strokeWidth=1;fontFamily=Verdana;fontSize=12" edge="1" parent="AIw0YnytM_WcK_We3Al_-110" source="AIw0YnytM_WcK_We3Al_-111" target="AIw0YnytM_WcK_We3Al_-112">
          <mxGeometry relative="1" as="geometry" />
        </mxCell>
        <mxCell id="AIw0YnytM_WcK_We3Al_-114" value="Memilih data dan klik Tombol Hapus" style="rounded=1;whiteSpace=wrap;html=1;shadow=0;comic=0;labelBackgroundColor=none;strokeWidth=1;fontFamily=Verdana;fontSize=12;align=center;arcSize=50;" vertex="1" parent="AIw0YnytM_WcK_We3Al_-110">
          <mxGeometry x="63.75" y="160" width="122.5" height="40" as="geometry" />
        </mxCell>
        <mxCell id="AIw0YnytM_WcK_We3Al_-115" value="Klik tombol OK" style="rounded=1;whiteSpace=wrap;html=1;shadow=0;comic=0;labelBackgroundColor=none;strokeWidth=1;fontFamily=Verdana;fontSize=12;align=center;arcSize=50;" vertex="1" parent="AIw0YnytM_WcK_We3Al_-110">
          <mxGeometry x="67.5" y="240" width="115" height="40" as="geometry" />
        </mxCell>
        <mxCell id="AIw0YnytM_WcK_We3Al_-116" value="Sistem" style="swimlane;html=1;startSize=20;" vertex="1" parent="AIw0YnytM_WcK_We3Al_-109">
          <mxGeometry x="250" y="20" width="250" height="600" as="geometry" />
        </mxCell>
        <mxCell id="AIw0YnytM_WcK_We3Al_-117" value="Menampilkan daftar data Kategori Produk" style="rounded=1;whiteSpace=wrap;html=1;shadow=0;comic=0;labelBackgroundColor=none;strokeWidth=1;fontFamily=Verdana;fontSize=12;align=center;arcSize=50;" vertex="1" parent="AIw0YnytM_WcK_We3Al_-116">
          <mxGeometry x="58.75" y="100" width="132.5" height="40" as="geometry" />
        </mxCell>
        <mxCell id="AIw0YnytM_WcK_We3Al_-118" value="Menampilkan pesan konfirmasi hapus data" style="rounded=1;whiteSpace=wrap;html=1;shadow=0;comic=0;labelBackgroundColor=none;strokeWidth=1;fontFamily=Verdana;fontSize=12;align=center;arcSize=50;" vertex="1" parent="AIw0YnytM_WcK_We3Al_-116">
          <mxGeometry x="49.38" y="200" width="151.25" height="40" as="geometry" />
        </mxCell>
        <mxCell id="AIw0YnytM_WcK_We3Al_-119" style="edgeStyle=orthogonalEdgeStyle;rounded=0;orthogonalLoop=1;jettySize=auto;html=1;exitX=1;exitY=0.5;exitDx=0;exitDy=0;exitPerimeter=0;entryX=1;entryY=0.5;entryDx=0;entryDy=0;" edge="1" parent="AIw0YnytM_WcK_We3Al_-116" source="AIw0YnytM_WcK_We3Al_-123" target="AIw0YnytM_WcK_We3Al_-128">
          <mxGeometry relative="1" as="geometry">
            <Array as="points">
              <mxPoint x="230" y="345" />
              <mxPoint x="230" y="560" />
            </Array>
            <mxPoint x="167" y="420" as="targetPoint" />
          </mxGeometry>
        </mxCell>
        <mxCell id="AIw0YnytM_WcK_We3Al_-120" value="False" style="edgeLabel;html=1;align=center;verticalAlign=middle;resizable=0;points=[];" vertex="1" connectable="0" parent="AIw0YnytM_WcK_We3Al_-119">
          <mxGeometry x="-0.0605" y="2" relative="1" as="geometry">
            <mxPoint x="1" y="-7" as="offset" />
          </mxGeometry>
        </mxCell>
        <mxCell id="AIw0YnytM_WcK_We3Al_-121" style="edgeStyle=orthogonalEdgeStyle;rounded=0;orthogonalLoop=1;jettySize=auto;html=1;entryX=0;entryY=0.5;entryDx=0;entryDy=0;" edge="1" parent="AIw0YnytM_WcK_We3Al_-116" source="AIw0YnytM_WcK_We3Al_-123" target="AIw0YnytM_WcK_We3Al_-127">
          <mxGeometry relative="1" as="geometry">
            <Array as="points">
              <mxPoint x="30" y="345" />
              <mxPoint x="30" y="440" />
            </Array>
          </mxGeometry>
        </mxCell>
        <mxCell id="AIw0YnytM_WcK_We3Al_-122" value="True" style="edgeLabel;html=1;align=center;verticalAlign=middle;resizable=0;points=[];" vertex="1" connectable="0" parent="AIw0YnytM_WcK_We3Al_-121">
          <mxGeometry x="0.1515" y="-4" relative="1" as="geometry">
            <mxPoint as="offset" />
          </mxGeometry>
        </mxCell>
        <mxCell id="AIw0YnytM_WcK_We3Al_-123" value="Valid?" style="points=[[0.25,0.25,0],[0.5,0,0],[0.75,0.25,0],[1,0.5,0],[0.75,0.75,0],[0.5,1,0],[0.25,0.75,0],[0,0.5,0]];shape=mxgraph.bpmn.gateway2;html=1;verticalLabelPosition=bottom;labelBackgroundColor=#ffffff;verticalAlign=top;align=center;perimeter=rhombusPerimeter;outlineConnect=0;outline=none;symbol=none;rotation=0;" vertex="1" parent="AIw0YnytM_WcK_We3Al_-116">
          <mxGeometry x="100.00000000000011" y="320" width="50" height="50" as="geometry" />
        </mxCell>
        <mxCell id="AIw0YnytM_WcK_We3Al_-126" style="edgeStyle=orthogonalEdgeStyle;rounded=0;orthogonalLoop=1;jettySize=auto;html=1;entryX=0.5;entryY=0;entryDx=0;entryDy=0;" edge="1" parent="AIw0YnytM_WcK_We3Al_-116" source="AIw0YnytM_WcK_We3Al_-127" target="AIw0YnytM_WcK_We3Al_-128">
          <mxGeometry relative="1" as="geometry" />
        </mxCell>
        <mxCell id="AIw0YnytM_WcK_We3Al_-127" value="Hapus data terpilih" style="rounded=1;whiteSpace=wrap;html=1;shadow=0;comic=0;labelBackgroundColor=none;strokeWidth=1;fontFamily=Verdana;fontSize=12;align=center;arcSize=50;" vertex="1" parent="AIw0YnytM_WcK_We3Al_-116">
          <mxGeometry x="53.75" y="420" width="142.5" height="40" as="geometry" />
        </mxCell>
        <mxCell id="AIw0YnytM_WcK_We3Al_-128" value="" style="shape=mxgraph.bpmn.shape;html=1;verticalLabelPosition=bottom;labelBackgroundColor=#ffffff;verticalAlign=top;perimeter=ellipsePerimeter;outline=end;symbol=terminate;rounded=0;shadow=0;comic=0;strokeWidth=1;fontFamily=Verdana;fontSize=12;align=center;" vertex="1" parent="AIw0YnytM_WcK_We3Al_-116">
          <mxGeometry x="105" y="540" width="40" height="40" as="geometry" />
        </mxCell>
        <mxCell id="AIw0YnytM_WcK_We3Al_-131" style="edgeStyle=orthogonalEdgeStyle;rounded=0;orthogonalLoop=1;jettySize=auto;html=1;" edge="1" parent="AIw0YnytM_WcK_We3Al_-109" source="AIw0YnytM_WcK_We3Al_-112" target="AIw0YnytM_WcK_We3Al_-117">
          <mxGeometry relative="1" as="geometry">
            <mxPoint x="325" y="140" as="targetPoint" />
          </mxGeometry>
        </mxCell>
        <mxCell id="AIw0YnytM_WcK_We3Al_-132" style="edgeStyle=orthogonalEdgeStyle;rounded=0;orthogonalLoop=1;jettySize=auto;html=1;" edge="1" parent="AIw0YnytM_WcK_We3Al_-109" source="AIw0YnytM_WcK_We3Al_-117" target="AIw0YnytM_WcK_We3Al_-114">
          <mxGeometry relative="1" as="geometry">
            <mxPoint x="370.0588235294117" y="155" as="sourcePoint" />
            <Array as="points">
              <mxPoint x="370" y="200" />
            </Array>
          </mxGeometry>
        </mxCell>
        <mxCell id="AIw0YnytM_WcK_We3Al_-133" style="edgeStyle=orthogonalEdgeStyle;rounded=0;orthogonalLoop=1;jettySize=auto;html=1;" edge="1" parent="AIw0YnytM_WcK_We3Al_-109" source="AIw0YnytM_WcK_We3Al_-114" target="AIw0YnytM_WcK_We3Al_-118">
          <mxGeometry relative="1" as="geometry">
            <Array as="points">
              <mxPoint x="125" y="240" />
            </Array>
          </mxGeometry>
        </mxCell>
        <mxCell id="AIw0YnytM_WcK_We3Al_-134" style="edgeStyle=orthogonalEdgeStyle;rounded=0;orthogonalLoop=1;jettySize=auto;html=1;" edge="1" parent="AIw0YnytM_WcK_We3Al_-109" source="AIw0YnytM_WcK_We3Al_-118" target="AIw0YnytM_WcK_We3Al_-115">
          <mxGeometry relative="1" as="geometry">
            <Array as="points">
              <mxPoint x="375" y="280" />
            </Array>
          </mxGeometry>
        </mxCell>
        <mxCell id="AIw0YnytM_WcK_We3Al_-135" style="edgeStyle=orthogonalEdgeStyle;rounded=0;orthogonalLoop=1;jettySize=auto;html=1;entryX=0.5;entryY=0;entryDx=0;entryDy=0;entryPerimeter=0;" edge="1" parent="AIw0YnytM_WcK_We3Al_-109" source="AIw0YnytM_WcK_We3Al_-115" target="AIw0YnytM_WcK_We3Al_-123">
          <mxGeometry relative="1" as="geometry">
            <Array as="points">
              <mxPoint x="125" y="320" />
            </Array>
            <mxPoint x="317.5" y="320" as="targetPoint" />
          </mxGeometry>
        </mxCell>
        <mxCell id="AIw0YnytM_WcK_We3Al_-137" value="Ubah Data Produk" style="swimlane;html=1;childLayout=stackLayout;startSize=20;rounded=0;shadow=0;comic=0;labelBackgroundColor=none;strokeWidth=1;fontFamily=Verdana;fontSize=12;align=center;" vertex="1" parent="1">
          <mxGeometry x="560" y="2000" width="500" height="620" as="geometry">
            <mxRectangle x="40" y="20" width="70" height="30" as="alternateBounds" />
          </mxGeometry>
        </mxCell>
        <mxCell id="AIw0YnytM_WcK_We3Al_-138" value="User (Super, Admin)" style="swimlane;html=1;startSize=20;" vertex="1" parent="AIw0YnytM_WcK_We3Al_-137">
          <mxGeometry y="20" width="250" height="600" as="geometry" />
        </mxCell>
        <mxCell id="AIw0YnytM_WcK_We3Al_-139" value="" style="ellipse;whiteSpace=wrap;html=1;rounded=0;shadow=0;comic=0;labelBackgroundColor=none;strokeWidth=1;fillColor=#000000;fontFamily=Verdana;fontSize=12;align=center;" vertex="1" parent="AIw0YnytM_WcK_We3Al_-138">
          <mxGeometry x="105" y="40" width="40" height="40" as="geometry" />
        </mxCell>
        <mxCell id="AIw0YnytM_WcK_We3Al_-140" value="Mengakses Halaman Daftar Produk" style="rounded=1;whiteSpace=wrap;html=1;shadow=0;comic=0;labelBackgroundColor=none;strokeWidth=1;fontFamily=Verdana;fontSize=12;align=center;arcSize=50;" vertex="1" parent="AIw0YnytM_WcK_We3Al_-138">
          <mxGeometry x="53.75" y="110" width="142.5" height="40" as="geometry" />
        </mxCell>
        <mxCell id="AIw0YnytM_WcK_We3Al_-141" style="edgeStyle=orthogonalEdgeStyle;rounded=0;html=1;labelBackgroundColor=none;startArrow=none;startFill=0;startSize=5;endArrow=classicThin;endFill=1;endSize=5;jettySize=auto;orthogonalLoop=1;strokeWidth=1;fontFamily=Verdana;fontSize=12" edge="1" parent="AIw0YnytM_WcK_We3Al_-138" source="AIw0YnytM_WcK_We3Al_-139" target="AIw0YnytM_WcK_We3Al_-140">
          <mxGeometry relative="1" as="geometry" />
        </mxCell>
        <mxCell id="AIw0YnytM_WcK_We3Al_-142" value="Memilih data dan klik Tombol Ubah" style="rounded=1;whiteSpace=wrap;html=1;shadow=0;comic=0;labelBackgroundColor=none;strokeWidth=1;fontFamily=Verdana;fontSize=12;align=center;arcSize=50;" vertex="1" parent="AIw0YnytM_WcK_We3Al_-138">
          <mxGeometry x="63.75" y="180" width="122.5" height="40" as="geometry" />
        </mxCell>
        <mxCell id="AIw0YnytM_WcK_We3Al_-143" value="Mengubah isi Form Ubah Data" style="rounded=1;whiteSpace=wrap;html=1;shadow=0;comic=0;labelBackgroundColor=none;strokeWidth=1;fontFamily=Verdana;fontSize=12;align=center;arcSize=50;" vertex="1" parent="AIw0YnytM_WcK_We3Al_-138">
          <mxGeometry x="67.5" y="250" width="115" height="40" as="geometry" />
        </mxCell>
        <mxCell id="AIw0YnytM_WcK_We3Al_-144" value="Sistem" style="swimlane;html=1;startSize=20;" vertex="1" parent="AIw0YnytM_WcK_We3Al_-137">
          <mxGeometry x="250" y="20" width="250" height="600" as="geometry" />
        </mxCell>
        <mxCell id="AIw0YnytM_WcK_We3Al_-145" value="Menampilkan daftar data Produk" style="rounded=1;whiteSpace=wrap;html=1;shadow=0;comic=0;labelBackgroundColor=none;strokeWidth=1;fontFamily=Verdana;fontSize=12;align=center;arcSize=50;" vertex="1" parent="AIw0YnytM_WcK_We3Al_-144">
          <mxGeometry x="53.75" y="110" width="142.5" height="40" as="geometry" />
        </mxCell>
        <mxCell id="AIw0YnytM_WcK_We3Al_-146" style="edgeStyle=orthogonalEdgeStyle;rounded=0;orthogonalLoop=1;jettySize=auto;html=1;" edge="1" parent="AIw0YnytM_WcK_We3Al_-144" source="AIw0YnytM_WcK_We3Al_-147" target="AIw0YnytM_WcK_We3Al_-152">
          <mxGeometry relative="1" as="geometry" />
        </mxCell>
        <mxCell id="AIw0YnytM_WcK_We3Al_-147" value="Validasi input" style="rounded=1;whiteSpace=wrap;html=1;shadow=0;comic=0;labelBackgroundColor=none;strokeWidth=1;fontFamily=Verdana;fontSize=12;align=center;arcSize=50;" vertex="1" parent="AIw0YnytM_WcK_We3Al_-144">
          <mxGeometry x="67.5" y="250" width="115" height="40" as="geometry" />
        </mxCell>
        <mxCell id="AIw0YnytM_WcK_We3Al_-148" style="edgeStyle=orthogonalEdgeStyle;rounded=0;orthogonalLoop=1;jettySize=auto;html=1;" edge="1" parent="AIw0YnytM_WcK_We3Al_-144" source="AIw0YnytM_WcK_We3Al_-152" target="AIw0YnytM_WcK_We3Al_-154">
          <mxGeometry relative="1" as="geometry">
            <Array as="points">
              <mxPoint x="167" y="345" />
            </Array>
          </mxGeometry>
        </mxCell>
        <mxCell id="AIw0YnytM_WcK_We3Al_-149" value="False" style="edgeLabel;html=1;align=center;verticalAlign=middle;resizable=0;points=[];" vertex="1" connectable="0" parent="AIw0YnytM_WcK_We3Al_-148">
          <mxGeometry x="-0.0605" y="2" relative="1" as="geometry">
            <mxPoint y="-17" as="offset" />
          </mxGeometry>
        </mxCell>
        <mxCell id="AIw0YnytM_WcK_We3Al_-150" style="edgeStyle=orthogonalEdgeStyle;rounded=0;orthogonalLoop=1;jettySize=auto;html=1;" edge="1" parent="AIw0YnytM_WcK_We3Al_-144" source="AIw0YnytM_WcK_We3Al_-152" target="AIw0YnytM_WcK_We3Al_-156">
          <mxGeometry relative="1" as="geometry">
            <Array as="points">
              <mxPoint x="30" y="345" />
              <mxPoint x="30" y="490" />
            </Array>
          </mxGeometry>
        </mxCell>
        <mxCell id="AIw0YnytM_WcK_We3Al_-151" value="True" style="edgeLabel;html=1;align=center;verticalAlign=middle;resizable=0;points=[];" vertex="1" connectable="0" parent="AIw0YnytM_WcK_We3Al_-150">
          <mxGeometry x="0.1515" y="-4" relative="1" as="geometry">
            <mxPoint as="offset" />
          </mxGeometry>
        </mxCell>
        <mxCell id="AIw0YnytM_WcK_We3Al_-152" value="Valid?" style="points=[[0.25,0.25,0],[0.5,0,0],[0.75,0.25,0],[1,0.5,0],[0.75,0.75,0],[0.5,1,0],[0.25,0.75,0],[0,0.5,0]];shape=mxgraph.bpmn.gateway2;html=1;verticalLabelPosition=bottom;labelBackgroundColor=#ffffff;verticalAlign=top;align=center;perimeter=rhombusPerimeter;outlineConnect=0;outline=none;symbol=none;rotation=0;" vertex="1" parent="AIw0YnytM_WcK_We3Al_-144">
          <mxGeometry x="100.00000000000011" y="320" width="50" height="50" as="geometry" />
        </mxCell>
        <mxCell id="AIw0YnytM_WcK_We3Al_-153" style="edgeStyle=orthogonalEdgeStyle;rounded=0;orthogonalLoop=1;jettySize=auto;html=1;" edge="1" parent="AIw0YnytM_WcK_We3Al_-144" source="AIw0YnytM_WcK_We3Al_-154" target="AIw0YnytM_WcK_We3Al_-158">
          <mxGeometry relative="1" as="geometry">
            <Array as="points">
              <mxPoint x="230" y="420" />
              <mxPoint x="230" y="200" />
            </Array>
          </mxGeometry>
        </mxCell>
        <mxCell id="AIw0YnytM_WcK_We3Al_-154" value="Menampilkan Pesan Kesalahan" style="rounded=1;whiteSpace=wrap;html=1;shadow=0;comic=0;labelBackgroundColor=none;strokeWidth=1;fontFamily=Verdana;fontSize=12;align=center;arcSize=50;" vertex="1" parent="AIw0YnytM_WcK_We3Al_-144">
          <mxGeometry x="100" y="403" width="115" height="40" as="geometry" />
        </mxCell>
        <mxCell id="AIw0YnytM_WcK_We3Al_-155" style="edgeStyle=orthogonalEdgeStyle;rounded=0;orthogonalLoop=1;jettySize=auto;html=1;entryX=0.5;entryY=0;entryDx=0;entryDy=0;" edge="1" parent="AIw0YnytM_WcK_We3Al_-144" source="AIw0YnytM_WcK_We3Al_-156" target="AIw0YnytM_WcK_We3Al_-157">
          <mxGeometry relative="1" as="geometry" />
        </mxCell>
        <mxCell id="AIw0YnytM_WcK_We3Al_-156" value="Tampilkan Halaman Daftar Produk" style="rounded=1;whiteSpace=wrap;html=1;shadow=0;comic=0;labelBackgroundColor=none;strokeWidth=1;fontFamily=Verdana;fontSize=12;align=center;arcSize=50;" vertex="1" parent="AIw0YnytM_WcK_We3Al_-144">
          <mxGeometry x="53.75" y="470" width="142.5" height="40" as="geometry" />
        </mxCell>
        <mxCell id="AIw0YnytM_WcK_We3Al_-157" value="" style="shape=mxgraph.bpmn.shape;html=1;verticalLabelPosition=bottom;labelBackgroundColor=#ffffff;verticalAlign=top;perimeter=ellipsePerimeter;outline=end;symbol=terminate;rounded=0;shadow=0;comic=0;strokeWidth=1;fontFamily=Verdana;fontSize=12;align=center;" vertex="1" parent="AIw0YnytM_WcK_We3Al_-144">
          <mxGeometry x="105" y="540" width="40" height="40" as="geometry" />
        </mxCell>
        <mxCell id="AIw0YnytM_WcK_We3Al_-158" value="Menampilkan Form Ubah Data" style="rounded=1;whiteSpace=wrap;html=1;shadow=0;comic=0;labelBackgroundColor=none;strokeWidth=1;fontFamily=Verdana;fontSize=12;align=center;arcSize=50;" vertex="1" parent="AIw0YnytM_WcK_We3Al_-144">
          <mxGeometry x="58.75" y="180" width="132.5" height="40" as="geometry" />
        </mxCell>
        <mxCell id="AIw0YnytM_WcK_We3Al_-159" style="edgeStyle=orthogonalEdgeStyle;rounded=0;orthogonalLoop=1;jettySize=auto;html=1;" edge="1" parent="AIw0YnytM_WcK_We3Al_-137" source="AIw0YnytM_WcK_We3Al_-140" target="AIw0YnytM_WcK_We3Al_-145">
          <mxGeometry relative="1" as="geometry">
            <mxPoint x="325" y="140" as="targetPoint" />
          </mxGeometry>
        </mxCell>
        <mxCell id="AIw0YnytM_WcK_We3Al_-160" style="edgeStyle=orthogonalEdgeStyle;rounded=0;orthogonalLoop=1;jettySize=auto;html=1;" edge="1" parent="AIw0YnytM_WcK_We3Al_-137" source="AIw0YnytM_WcK_We3Al_-145" target="AIw0YnytM_WcK_We3Al_-142">
          <mxGeometry relative="1" as="geometry">
            <mxPoint x="370.0588235294117" y="155" as="sourcePoint" />
            <Array as="points">
              <mxPoint x="370" y="180" />
              <mxPoint x="125" y="180" />
            </Array>
          </mxGeometry>
        </mxCell>
        <mxCell id="AIw0YnytM_WcK_We3Al_-161" style="edgeStyle=orthogonalEdgeStyle;rounded=0;orthogonalLoop=1;jettySize=auto;html=1;" edge="1" parent="AIw0YnytM_WcK_We3Al_-137" source="AIw0YnytM_WcK_We3Al_-143" target="AIw0YnytM_WcK_We3Al_-147">
          <mxGeometry relative="1" as="geometry">
            <mxPoint x="155" y="289.9999999999998" as="sourcePoint" />
          </mxGeometry>
        </mxCell>
        <mxCell id="AIw0YnytM_WcK_We3Al_-162" style="edgeStyle=orthogonalEdgeStyle;rounded=0;orthogonalLoop=1;jettySize=auto;html=1;" edge="1" parent="AIw0YnytM_WcK_We3Al_-137" source="AIw0YnytM_WcK_We3Al_-142" target="AIw0YnytM_WcK_We3Al_-158">
          <mxGeometry relative="1" as="geometry">
            <mxPoint x="97.47058823529414" y="269.9999999999998" as="targetPoint" />
          </mxGeometry>
        </mxCell>
        <mxCell id="AIw0YnytM_WcK_We3Al_-163" style="edgeStyle=orthogonalEdgeStyle;rounded=0;orthogonalLoop=1;jettySize=auto;html=1;" edge="1" parent="AIw0YnytM_WcK_We3Al_-137" source="AIw0YnytM_WcK_We3Al_-158" target="AIw0YnytM_WcK_We3Al_-143">
          <mxGeometry relative="1" as="geometry">
            <Array as="points">
              <mxPoint x="375" y="250" />
              <mxPoint x="125" y="250" />
            </Array>
          </mxGeometry>
        </mxCell>
        <mxCell id="AIw0YnytM_WcK_We3Al_-164" value="Tambah Data Produk" style="swimlane;html=1;childLayout=stackLayout;startSize=20;rounded=0;shadow=0;comic=0;labelBackgroundColor=none;strokeWidth=1;fontFamily=Verdana;fontSize=12;align=center;" vertex="1" parent="1">
          <mxGeometry x="40" y="2000" width="500" height="620" as="geometry">
            <mxRectangle x="40" y="20" width="70" height="30" as="alternateBounds" />
          </mxGeometry>
        </mxCell>
        <mxCell id="AIw0YnytM_WcK_We3Al_-165" value="User (Super, Admin)" style="swimlane;html=1;startSize=20;" vertex="1" parent="AIw0YnytM_WcK_We3Al_-164">
          <mxGeometry y="20" width="250" height="600" as="geometry" />
        </mxCell>
        <mxCell id="AIw0YnytM_WcK_We3Al_-166" value="" style="ellipse;whiteSpace=wrap;html=1;rounded=0;shadow=0;comic=0;labelBackgroundColor=none;strokeWidth=1;fillColor=#000000;fontFamily=Verdana;fontSize=12;align=center;" vertex="1" parent="AIw0YnytM_WcK_We3Al_-165">
          <mxGeometry x="105" y="40" width="40" height="40" as="geometry" />
        </mxCell>
        <mxCell id="AIw0YnytM_WcK_We3Al_-167" value="Mengakses Halaman Daftar Produk" style="rounded=1;whiteSpace=wrap;html=1;shadow=0;comic=0;labelBackgroundColor=none;strokeWidth=1;fontFamily=Verdana;fontSize=12;align=center;arcSize=50;" vertex="1" parent="AIw0YnytM_WcK_We3Al_-165">
          <mxGeometry x="53.75" y="100" width="142.5" height="40" as="geometry" />
        </mxCell>
        <mxCell id="AIw0YnytM_WcK_We3Al_-168" style="edgeStyle=orthogonalEdgeStyle;rounded=0;html=1;labelBackgroundColor=none;startArrow=none;startFill=0;startSize=5;endArrow=classicThin;endFill=1;endSize=5;jettySize=auto;orthogonalLoop=1;strokeWidth=1;fontFamily=Verdana;fontSize=12" edge="1" parent="AIw0YnytM_WcK_We3Al_-165" source="AIw0YnytM_WcK_We3Al_-166" target="AIw0YnytM_WcK_We3Al_-167">
          <mxGeometry relative="1" as="geometry" />
        </mxCell>
        <mxCell id="AIw0YnytM_WcK_We3Al_-169" value="Klik Tombol Tambah Data" style="rounded=1;whiteSpace=wrap;html=1;shadow=0;comic=0;labelBackgroundColor=none;strokeWidth=1;fontFamily=Verdana;fontSize=12;align=center;arcSize=50;" vertex="1" parent="AIw0YnytM_WcK_We3Al_-165">
          <mxGeometry x="67.5" y="160" width="115" height="40" as="geometry" />
        </mxCell>
        <mxCell id="AIw0YnytM_WcK_We3Al_-170" value="Mengisi Form Tambah Data" style="rounded=1;whiteSpace=wrap;html=1;shadow=0;comic=0;labelBackgroundColor=none;strokeWidth=1;fontFamily=Verdana;fontSize=12;align=center;arcSize=50;" vertex="1" parent="AIw0YnytM_WcK_We3Al_-165">
          <mxGeometry x="67.5" y="240" width="115" height="40" as="geometry" />
        </mxCell>
        <mxCell id="AIw0YnytM_WcK_We3Al_-171" value="Sistem" style="swimlane;html=1;startSize=20;" vertex="1" parent="AIw0YnytM_WcK_We3Al_-164">
          <mxGeometry x="250" y="20" width="250" height="600" as="geometry" />
        </mxCell>
        <mxCell id="AIw0YnytM_WcK_We3Al_-172" value="Menampilkan daftar data Produk" style="rounded=1;whiteSpace=wrap;html=1;shadow=0;comic=0;labelBackgroundColor=none;strokeWidth=1;fontFamily=Verdana;fontSize=12;align=center;arcSize=50;" vertex="1" parent="AIw0YnytM_WcK_We3Al_-171">
          <mxGeometry x="58.75" y="100" width="132.5" height="40" as="geometry" />
        </mxCell>
        <mxCell id="AIw0YnytM_WcK_We3Al_-173" value="Menampilkan Form Tambah Data" style="rounded=1;whiteSpace=wrap;html=1;shadow=0;comic=0;labelBackgroundColor=none;strokeWidth=1;fontFamily=Verdana;fontSize=12;align=center;arcSize=50;" vertex="1" parent="AIw0YnytM_WcK_We3Al_-171">
          <mxGeometry x="58.75" y="200" width="132.5" height="40" as="geometry" />
        </mxCell>
        <mxCell id="AIw0YnytM_WcK_We3Al_-174" style="edgeStyle=orthogonalEdgeStyle;rounded=0;orthogonalLoop=1;jettySize=auto;html=1;" edge="1" parent="AIw0YnytM_WcK_We3Al_-171" source="AIw0YnytM_WcK_We3Al_-178" target="AIw0YnytM_WcK_We3Al_-180">
          <mxGeometry relative="1" as="geometry">
            <Array as="points">
              <mxPoint x="167" y="365" />
            </Array>
          </mxGeometry>
        </mxCell>
        <mxCell id="AIw0YnytM_WcK_We3Al_-175" value="False" style="edgeLabel;html=1;align=center;verticalAlign=middle;resizable=0;points=[];" vertex="1" connectable="0" parent="AIw0YnytM_WcK_We3Al_-174">
          <mxGeometry x="-0.0605" y="2" relative="1" as="geometry">
            <mxPoint y="-17" as="offset" />
          </mxGeometry>
        </mxCell>
        <mxCell id="AIw0YnytM_WcK_We3Al_-176" style="edgeStyle=orthogonalEdgeStyle;rounded=0;orthogonalLoop=1;jettySize=auto;html=1;" edge="1" parent="AIw0YnytM_WcK_We3Al_-171" source="AIw0YnytM_WcK_We3Al_-178" target="AIw0YnytM_WcK_We3Al_-182">
          <mxGeometry relative="1" as="geometry">
            <Array as="points">
              <mxPoint x="30" y="365" />
              <mxPoint x="30" y="490" />
            </Array>
          </mxGeometry>
        </mxCell>
        <mxCell id="AIw0YnytM_WcK_We3Al_-177" value="True" style="edgeLabel;html=1;align=center;verticalAlign=middle;resizable=0;points=[];" vertex="1" connectable="0" parent="AIw0YnytM_WcK_We3Al_-176">
          <mxGeometry x="0.1515" y="-4" relative="1" as="geometry">
            <mxPoint as="offset" />
          </mxGeometry>
        </mxCell>
        <mxCell id="AIw0YnytM_WcK_We3Al_-178" value="Valid?" style="points=[[0.25,0.25,0],[0.5,0,0],[0.75,0.25,0],[1,0.5,0],[0.75,0.75,0],[0.5,1,0],[0.25,0.75,0],[0,0.5,0]];shape=mxgraph.bpmn.gateway2;html=1;verticalLabelPosition=bottom;labelBackgroundColor=#ffffff;verticalAlign=top;align=center;perimeter=rhombusPerimeter;outlineConnect=0;outline=none;symbol=none;rotation=0;" vertex="1" parent="AIw0YnytM_WcK_We3Al_-171">
          <mxGeometry x="100.00000000000011" y="340" width="50" height="50" as="geometry" />
        </mxCell>
        <mxCell id="AIw0YnytM_WcK_We3Al_-179" style="edgeStyle=orthogonalEdgeStyle;rounded=0;orthogonalLoop=1;jettySize=auto;html=1;" edge="1" parent="AIw0YnytM_WcK_We3Al_-171" source="AIw0YnytM_WcK_We3Al_-180" target="AIw0YnytM_WcK_We3Al_-173">
          <mxGeometry relative="1" as="geometry">
            <Array as="points">
              <mxPoint x="230" y="440" />
              <mxPoint x="230" y="220" />
            </Array>
          </mxGeometry>
        </mxCell>
        <mxCell id="AIw0YnytM_WcK_We3Al_-180" value="Menampilkan Pesan Kesalahan" style="rounded=1;whiteSpace=wrap;html=1;shadow=0;comic=0;labelBackgroundColor=none;strokeWidth=1;fontFamily=Verdana;fontSize=12;align=center;arcSize=50;" vertex="1" parent="AIw0YnytM_WcK_We3Al_-171">
          <mxGeometry x="100" y="420" width="115" height="40" as="geometry" />
        </mxCell>
        <mxCell id="AIw0YnytM_WcK_We3Al_-181" style="edgeStyle=orthogonalEdgeStyle;rounded=0;orthogonalLoop=1;jettySize=auto;html=1;entryX=0.5;entryY=0;entryDx=0;entryDy=0;" edge="1" parent="AIw0YnytM_WcK_We3Al_-171" source="AIw0YnytM_WcK_We3Al_-182" target="AIw0YnytM_WcK_We3Al_-183">
          <mxGeometry relative="1" as="geometry" />
        </mxCell>
        <mxCell id="AIw0YnytM_WcK_We3Al_-182" value="Tampilkan Halaman Daftar Produk" style="rounded=1;whiteSpace=wrap;html=1;shadow=0;comic=0;labelBackgroundColor=none;strokeWidth=1;fontFamily=Verdana;fontSize=12;align=center;arcSize=50;" vertex="1" parent="AIw0YnytM_WcK_We3Al_-171">
          <mxGeometry x="53.75" y="470" width="142.5" height="40" as="geometry" />
        </mxCell>
        <mxCell id="AIw0YnytM_WcK_We3Al_-183" value="" style="shape=mxgraph.bpmn.shape;html=1;verticalLabelPosition=bottom;labelBackgroundColor=#ffffff;verticalAlign=top;perimeter=ellipsePerimeter;outline=end;symbol=terminate;rounded=0;shadow=0;comic=0;strokeWidth=1;fontFamily=Verdana;fontSize=12;align=center;" vertex="1" parent="AIw0YnytM_WcK_We3Al_-171">
          <mxGeometry x="105" y="540" width="40" height="40" as="geometry" />
        </mxCell>
        <mxCell id="AIw0YnytM_WcK_We3Al_-184" style="edgeStyle=orthogonalEdgeStyle;rounded=0;orthogonalLoop=1;jettySize=auto;html=1;" edge="1" parent="AIw0YnytM_WcK_We3Al_-171" source="AIw0YnytM_WcK_We3Al_-185" target="AIw0YnytM_WcK_We3Al_-178">
          <mxGeometry relative="1" as="geometry" />
        </mxCell>
        <mxCell id="AIw0YnytM_WcK_We3Al_-185" value="Validasi input" style="rounded=1;whiteSpace=wrap;html=1;shadow=0;comic=0;labelBackgroundColor=none;strokeWidth=1;fontFamily=Verdana;fontSize=12;align=center;arcSize=50;" vertex="1" parent="AIw0YnytM_WcK_We3Al_-171">
          <mxGeometry x="67.5" y="280" width="115" height="40" as="geometry" />
        </mxCell>
        <mxCell id="AIw0YnytM_WcK_We3Al_-186" style="edgeStyle=orthogonalEdgeStyle;rounded=0;orthogonalLoop=1;jettySize=auto;html=1;" edge="1" parent="AIw0YnytM_WcK_We3Al_-164" source="AIw0YnytM_WcK_We3Al_-167" target="AIw0YnytM_WcK_We3Al_-172">
          <mxGeometry relative="1" as="geometry">
            <mxPoint x="325" y="140" as="targetPoint" />
          </mxGeometry>
        </mxCell>
        <mxCell id="AIw0YnytM_WcK_We3Al_-187" style="edgeStyle=orthogonalEdgeStyle;rounded=0;orthogonalLoop=1;jettySize=auto;html=1;" edge="1" parent="AIw0YnytM_WcK_We3Al_-164" source="AIw0YnytM_WcK_We3Al_-172" target="AIw0YnytM_WcK_We3Al_-169">
          <mxGeometry relative="1" as="geometry">
            <mxPoint x="370.0588235294117" y="155" as="sourcePoint" />
            <Array as="points">
              <mxPoint x="370" y="200" />
            </Array>
          </mxGeometry>
        </mxCell>
        <mxCell id="AIw0YnytM_WcK_We3Al_-188" style="edgeStyle=orthogonalEdgeStyle;rounded=0;orthogonalLoop=1;jettySize=auto;html=1;" edge="1" parent="AIw0YnytM_WcK_We3Al_-164" source="AIw0YnytM_WcK_We3Al_-169" target="AIw0YnytM_WcK_We3Al_-173">
          <mxGeometry relative="1" as="geometry">
            <Array as="points">
              <mxPoint x="125" y="240" />
            </Array>
          </mxGeometry>
        </mxCell>
        <mxCell id="AIw0YnytM_WcK_We3Al_-189" style="edgeStyle=orthogonalEdgeStyle;rounded=0;orthogonalLoop=1;jettySize=auto;html=1;" edge="1" parent="AIw0YnytM_WcK_We3Al_-164" source="AIw0YnytM_WcK_We3Al_-173" target="AIw0YnytM_WcK_We3Al_-170">
          <mxGeometry relative="1" as="geometry">
            <Array as="points">
              <mxPoint x="375" y="280" />
            </Array>
          </mxGeometry>
        </mxCell>
        <mxCell id="AIw0YnytM_WcK_We3Al_-190" style="edgeStyle=orthogonalEdgeStyle;rounded=0;orthogonalLoop=1;jettySize=auto;html=1;" edge="1" parent="AIw0YnytM_WcK_We3Al_-164" source="AIw0YnytM_WcK_We3Al_-170" target="AIw0YnytM_WcK_We3Al_-185">
          <mxGeometry relative="1" as="geometry">
            <Array as="points">
              <mxPoint x="125" y="320" />
            </Array>
          </mxGeometry>
        </mxCell>
        <mxCell id="AIw0YnytM_WcK_We3Al_-191" value="Hapus Data Produk" style="swimlane;html=1;childLayout=stackLayout;startSize=20;rounded=0;shadow=0;comic=0;labelBackgroundColor=none;strokeWidth=1;fontFamily=Verdana;fontSize=12;align=center;" vertex="1" parent="1">
          <mxGeometry x="1080" y="2000" width="500" height="620" as="geometry">
            <mxRectangle x="40" y="20" width="70" height="30" as="alternateBounds" />
          </mxGeometry>
        </mxCell>
        <mxCell id="AIw0YnytM_WcK_We3Al_-192" value="User (Super, Admin)" style="swimlane;html=1;startSize=20;" vertex="1" parent="AIw0YnytM_WcK_We3Al_-191">
          <mxGeometry y="20" width="250" height="600" as="geometry" />
        </mxCell>
        <mxCell id="AIw0YnytM_WcK_We3Al_-193" value="" style="ellipse;whiteSpace=wrap;html=1;rounded=0;shadow=0;comic=0;labelBackgroundColor=none;strokeWidth=1;fillColor=#000000;fontFamily=Verdana;fontSize=12;align=center;" vertex="1" parent="AIw0YnytM_WcK_We3Al_-192">
          <mxGeometry x="105" y="40" width="40" height="40" as="geometry" />
        </mxCell>
        <mxCell id="AIw0YnytM_WcK_We3Al_-194" value="Mengakses Halaman Daftar Produk" style="rounded=1;whiteSpace=wrap;html=1;shadow=0;comic=0;labelBackgroundColor=none;strokeWidth=1;fontFamily=Verdana;fontSize=12;align=center;arcSize=50;" vertex="1" parent="AIw0YnytM_WcK_We3Al_-192">
          <mxGeometry x="53.75" y="100" width="142.5" height="40" as="geometry" />
        </mxCell>
        <mxCell id="AIw0YnytM_WcK_We3Al_-195" style="edgeStyle=orthogonalEdgeStyle;rounded=0;html=1;labelBackgroundColor=none;startArrow=none;startFill=0;startSize=5;endArrow=classicThin;endFill=1;endSize=5;jettySize=auto;orthogonalLoop=1;strokeWidth=1;fontFamily=Verdana;fontSize=12" edge="1" parent="AIw0YnytM_WcK_We3Al_-192" source="AIw0YnytM_WcK_We3Al_-193" target="AIw0YnytM_WcK_We3Al_-194">
          <mxGeometry relative="1" as="geometry" />
        </mxCell>
        <mxCell id="AIw0YnytM_WcK_We3Al_-196" value="Memilih data dan klik Tombol Hapus" style="rounded=1;whiteSpace=wrap;html=1;shadow=0;comic=0;labelBackgroundColor=none;strokeWidth=1;fontFamily=Verdana;fontSize=12;align=center;arcSize=50;" vertex="1" parent="AIw0YnytM_WcK_We3Al_-192">
          <mxGeometry x="63.75" y="160" width="122.5" height="40" as="geometry" />
        </mxCell>
        <mxCell id="AIw0YnytM_WcK_We3Al_-197" value="Klik tombol OK" style="rounded=1;whiteSpace=wrap;html=1;shadow=0;comic=0;labelBackgroundColor=none;strokeWidth=1;fontFamily=Verdana;fontSize=12;align=center;arcSize=50;" vertex="1" parent="AIw0YnytM_WcK_We3Al_-192">
          <mxGeometry x="67.5" y="240" width="115" height="40" as="geometry" />
        </mxCell>
        <mxCell id="AIw0YnytM_WcK_We3Al_-198" value="Sistem" style="swimlane;html=1;startSize=20;" vertex="1" parent="AIw0YnytM_WcK_We3Al_-191">
          <mxGeometry x="250" y="20" width="250" height="600" as="geometry" />
        </mxCell>
        <mxCell id="AIw0YnytM_WcK_We3Al_-199" value="Menampilkan daftar data Produk" style="rounded=1;whiteSpace=wrap;html=1;shadow=0;comic=0;labelBackgroundColor=none;strokeWidth=1;fontFamily=Verdana;fontSize=12;align=center;arcSize=50;" vertex="1" parent="AIw0YnytM_WcK_We3Al_-198">
          <mxGeometry x="58.75" y="100" width="132.5" height="40" as="geometry" />
        </mxCell>
        <mxCell id="AIw0YnytM_WcK_We3Al_-200" value="Menampilkan pesan konfirmasi hapus data" style="rounded=1;whiteSpace=wrap;html=1;shadow=0;comic=0;labelBackgroundColor=none;strokeWidth=1;fontFamily=Verdana;fontSize=12;align=center;arcSize=50;" vertex="1" parent="AIw0YnytM_WcK_We3Al_-198">
          <mxGeometry x="49.38" y="200" width="151.25" height="40" as="geometry" />
        </mxCell>
        <mxCell id="AIw0YnytM_WcK_We3Al_-201" style="edgeStyle=orthogonalEdgeStyle;rounded=0;orthogonalLoop=1;jettySize=auto;html=1;exitX=1;exitY=0.5;exitDx=0;exitDy=0;exitPerimeter=0;entryX=1;entryY=0.5;entryDx=0;entryDy=0;" edge="1" parent="AIw0YnytM_WcK_We3Al_-198" source="AIw0YnytM_WcK_We3Al_-205" target="AIw0YnytM_WcK_We3Al_-208">
          <mxGeometry relative="1" as="geometry">
            <Array as="points">
              <mxPoint x="230" y="345" />
              <mxPoint x="230" y="560" />
            </Array>
            <mxPoint x="167" y="420" as="targetPoint" />
          </mxGeometry>
        </mxCell>
        <mxCell id="AIw0YnytM_WcK_We3Al_-202" value="False" style="edgeLabel;html=1;align=center;verticalAlign=middle;resizable=0;points=[];" vertex="1" connectable="0" parent="AIw0YnytM_WcK_We3Al_-201">
          <mxGeometry x="-0.0605" y="2" relative="1" as="geometry">
            <mxPoint x="1" y="-7" as="offset" />
          </mxGeometry>
        </mxCell>
        <mxCell id="AIw0YnytM_WcK_We3Al_-203" style="edgeStyle=orthogonalEdgeStyle;rounded=0;orthogonalLoop=1;jettySize=auto;html=1;entryX=0;entryY=0.5;entryDx=0;entryDy=0;" edge="1" parent="AIw0YnytM_WcK_We3Al_-198" source="AIw0YnytM_WcK_We3Al_-205" target="AIw0YnytM_WcK_We3Al_-207">
          <mxGeometry relative="1" as="geometry">
            <Array as="points">
              <mxPoint x="30" y="345" />
              <mxPoint x="30" y="440" />
            </Array>
          </mxGeometry>
        </mxCell>
        <mxCell id="AIw0YnytM_WcK_We3Al_-204" value="True" style="edgeLabel;html=1;align=center;verticalAlign=middle;resizable=0;points=[];" vertex="1" connectable="0" parent="AIw0YnytM_WcK_We3Al_-203">
          <mxGeometry x="0.1515" y="-4" relative="1" as="geometry">
            <mxPoint as="offset" />
          </mxGeometry>
        </mxCell>
        <mxCell id="AIw0YnytM_WcK_We3Al_-205" value="Valid?" style="points=[[0.25,0.25,0],[0.5,0,0],[0.75,0.25,0],[1,0.5,0],[0.75,0.75,0],[0.5,1,0],[0.25,0.75,0],[0,0.5,0]];shape=mxgraph.bpmn.gateway2;html=1;verticalLabelPosition=bottom;labelBackgroundColor=#ffffff;verticalAlign=top;align=center;perimeter=rhombusPerimeter;outlineConnect=0;outline=none;symbol=none;rotation=0;" vertex="1" parent="AIw0YnytM_WcK_We3Al_-198">
          <mxGeometry x="100.00000000000011" y="320" width="50" height="50" as="geometry" />
        </mxCell>
        <mxCell id="AIw0YnytM_WcK_We3Al_-206" style="edgeStyle=orthogonalEdgeStyle;rounded=0;orthogonalLoop=1;jettySize=auto;html=1;entryX=0.5;entryY=0;entryDx=0;entryDy=0;" edge="1" parent="AIw0YnytM_WcK_We3Al_-198" source="AIw0YnytM_WcK_We3Al_-207" target="AIw0YnytM_WcK_We3Al_-208">
          <mxGeometry relative="1" as="geometry" />
        </mxCell>
        <mxCell id="AIw0YnytM_WcK_We3Al_-207" value="Hapus data terpilih" style="rounded=1;whiteSpace=wrap;html=1;shadow=0;comic=0;labelBackgroundColor=none;strokeWidth=1;fontFamily=Verdana;fontSize=12;align=center;arcSize=50;" vertex="1" parent="AIw0YnytM_WcK_We3Al_-198">
          <mxGeometry x="53.75" y="420" width="142.5" height="40" as="geometry" />
        </mxCell>
        <mxCell id="AIw0YnytM_WcK_We3Al_-208" value="" style="shape=mxgraph.bpmn.shape;html=1;verticalLabelPosition=bottom;labelBackgroundColor=#ffffff;verticalAlign=top;perimeter=ellipsePerimeter;outline=end;symbol=terminate;rounded=0;shadow=0;comic=0;strokeWidth=1;fontFamily=Verdana;fontSize=12;align=center;" vertex="1" parent="AIw0YnytM_WcK_We3Al_-198">
          <mxGeometry x="105" y="540" width="40" height="40" as="geometry" />
        </mxCell>
        <mxCell id="AIw0YnytM_WcK_We3Al_-209" style="edgeStyle=orthogonalEdgeStyle;rounded=0;orthogonalLoop=1;jettySize=auto;html=1;" edge="1" parent="AIw0YnytM_WcK_We3Al_-191" source="AIw0YnytM_WcK_We3Al_-194" target="AIw0YnytM_WcK_We3Al_-199">
          <mxGeometry relative="1" as="geometry">
            <mxPoint x="325" y="140" as="targetPoint" />
          </mxGeometry>
        </mxCell>
        <mxCell id="AIw0YnytM_WcK_We3Al_-210" style="edgeStyle=orthogonalEdgeStyle;rounded=0;orthogonalLoop=1;jettySize=auto;html=1;" edge="1" parent="AIw0YnytM_WcK_We3Al_-191" source="AIw0YnytM_WcK_We3Al_-199" target="AIw0YnytM_WcK_We3Al_-196">
          <mxGeometry relative="1" as="geometry">
            <mxPoint x="370.0588235294117" y="155" as="sourcePoint" />
            <Array as="points">
              <mxPoint x="370" y="200" />
            </Array>
          </mxGeometry>
        </mxCell>
        <mxCell id="AIw0YnytM_WcK_We3Al_-211" style="edgeStyle=orthogonalEdgeStyle;rounded=0;orthogonalLoop=1;jettySize=auto;html=1;" edge="1" parent="AIw0YnytM_WcK_We3Al_-191" source="AIw0YnytM_WcK_We3Al_-196" target="AIw0YnytM_WcK_We3Al_-200">
          <mxGeometry relative="1" as="geometry">
            <Array as="points">
              <mxPoint x="125" y="240" />
            </Array>
          </mxGeometry>
        </mxCell>
        <mxCell id="AIw0YnytM_WcK_We3Al_-212" style="edgeStyle=orthogonalEdgeStyle;rounded=0;orthogonalLoop=1;jettySize=auto;html=1;" edge="1" parent="AIw0YnytM_WcK_We3Al_-191" source="AIw0YnytM_WcK_We3Al_-200" target="AIw0YnytM_WcK_We3Al_-197">
          <mxGeometry relative="1" as="geometry">
            <Array as="points">
              <mxPoint x="375" y="280" />
            </Array>
          </mxGeometry>
        </mxCell>
        <mxCell id="AIw0YnytM_WcK_We3Al_-213" style="edgeStyle=orthogonalEdgeStyle;rounded=0;orthogonalLoop=1;jettySize=auto;html=1;entryX=0.5;entryY=0;entryDx=0;entryDy=0;entryPerimeter=0;" edge="1" parent="AIw0YnytM_WcK_We3Al_-191" source="AIw0YnytM_WcK_We3Al_-197" target="AIw0YnytM_WcK_We3Al_-205">
          <mxGeometry relative="1" as="geometry">
            <Array as="points">
              <mxPoint x="125" y="320" />
            </Array>
            <mxPoint x="317.5" y="320" as="targetPoint" />
          </mxGeometry>
        </mxCell>
      </root>
    </mxGraphModel>
  </diagram>
</mxfile>
